<svg class="img-fluid" id="outputsvg" xmlns="http://www.w3.org/2000/svg" style="transform: matrix(1.69, 0, 0, 1.69, -52.6036, 86.8223); transform-origin: 50% 50% 0px; cursor: move; max-height: 471.46px; transition: none 0s ease 0s;" width="256" height="256" viewBox="0 0 2560 2560"><g id="l3o9VdxcQDbir1pHEhhsPAF" fill="rgb(237,235,255)" style="transform: none;"><g style="transform: none;"><path id="p19aGGfSA1" d="M0 2128 c0 -238 4 -450 9 -470 5 -22 5 -38 0 -38 -5 0 -9 -90 -9 -204 0 -203 0 -203 25 -230 17 -18 25 -39 25 -62 0 -31 2 -34 30 -34 23 0 33 -6 39 -22 6 -16 21 -26 52 -33 31 -8 45 -17 47 -30 2 -12 19 -28 42 -38 32 -15 54 -17 147 -11 59 4 114 11 121 17 15 12 16 89 1 104 -16 16 -25 163 -10 172 23 14 25 103 3 171 -33 107 -299 888 -307 899 -4 8 54 11 194 11 172 0 201 2 201 15 0 8 5 15 10 15 6 0 10 -11 10 -25 0 -20 -5 -25 -25 -25 -23 0 -25 -4 -25 -42 0 -24 14 -94 31 -155 26 -90 36 -113 50 -113 10 0 21 -4 24 -10 3 -5 28 -10 55 -10 27 0 52 -4 55 -10 3 -5 17 -10 30 -10 13 0 28 -6 32 -14 12 -20 48 -36 81 -36 27 0 30 4 36 40 l6 40 55 0 55 0 25 52 c14 28 25 67 25 85 0 21 6 36 15 39 9 4 15 19 15 39 0 46 22 84 73 127 44 36 45 39 52 112 12 129 50 117 -368 114 l-362 -3 -3 -38 c-4 -46 -22 -39 -22 9 l0 34 -270 0 -270 0 0 -432z m970 -22 c0 -3 -4 -8 -10 -11 -5 -3 -10 -1 -10 4 0 6 5 11 10 11 6 0 10 -2 10 -4z m-823 -273 c-4 -3 -10 -3 -14 0 -3 4 0 7 7 7 7 0 10 -3 7 -7z"></path><path id="pe4cscUWQ" d="M740 1688 c0 -47 21 -98 41 -98 9 0 22 -7 29 -15 8 -10 30 -15 61 -15 l49 0 0 46 c0 27 -6 51 -15 60 -8 9 -15 24 -15 35 0 17 -8 19 -75 19 l-75 0 0 -32z"></path><path id="p1BGkrfrvT" d="M1945 1083 c-4 -10 -34 -96 -67 -191 -46 -134 -59 -185 -57 -220 4 -59 -7 -92 -31 -92 -14 0 -26 -22 -54 -108 -39 -115 -46 -179 -21 -188 8 -4 15 -15 15 -25 0 -15 -7 -19 -34 -19 l-35 0 -76 235 c-48 147 -82 235 -90 235 -7 0 -15 7 -19 15 -3 8 -14 15 -24 15 -10 0 -32 13 -48 30 -45 46 -124 39 -124 -11 0 -9 -11 -24 -24 -32 -16 -11 -26 -30 -31 -56 -3 -21 -15 -47 -26 -57 -10 -9 -19 -25 -19 -35 0 -10 -4 -20 -9 -24 -16 -9 -41 -110 -41 -164 0 -37 -4 -53 -15 -57 -8 -4 -15 -12 -15 -19 0 -7 -11 -20 -24 -28 -33 -22 -65 -97 -73 -168 -3 -33 -10 -62 -14 -65 -5 -3 -9 -16 -9 -30 l0 -24 400 0 400 0 0 45 c0 25 -4 45 -10 45 -5 0 -10 11 -10 25 0 40 19 29 26 -14 3 -22 15 -53 25 -70 l19 -31 365 0 365 0 0 60 c0 32 -6 71 -12 86 -10 22 -10 28 0 32 9 3 12 62 12 245 l0 242 -48 15 c-35 12 -48 21 -50 38 -2 12 -9 22 -15 22 -8 0 -12 19 -12 53 0 62 -32 111 -77 121 -22 4 -28 11 -28 33 0 16 -9 39 -20 53 -11 14 -20 29 -20 34 0 28 -110 53 -110 25 0 -20 -120 -2 -145 21 -27 25 -80 27 -90 3z m255 -264 c0 -10 -4 -19 -10 -19 -5 0 -10 12 -10 26 0 14 4 23 10 19 6 -3 10 -15 10 -26z m265 -500 c11 -17 -1 -21 -15 -4 -8 9 -8 15 -2 15 6 0 14 -5 17 -11z"></path><path id="psnVGBAgL" d="M620 873 c-8 -3 -21 -11 -29 -17 -20 -16 -104 -36 -196 -47 -44 -5 -90 -14 -103 -19 -13 -6 -46 -10 -74 -10 l-50 0 7 -82 c4 -46 11 -91 16 -100 12 -22 71 -24 91 -4 16 15 147 35 184 28 36 -7 18 -22 -26 -22 -21 0 -42 -5 -45 -10 -3 -6 -26 -15 -51 -21 -24 -6 -44 -15 -44 -20 0 -5 -28 -9 -62 -9 -36 -1 -74 -7 -88 -15 -14 -8 -44 -14 -67 -15 -37 0 -43 -3 -43 -21 0 -12 -8 -23 -20 -26 -19 -5 -20 -14 -20 -234 l0 -229 219 0 c121 0 230 4 243 9 30 12 78 55 78 70 0 6 7 11 16 11 32 0 93 45 99 73 3 15 7 40 11 56 4 25 11 29 46 34 24 3 51 16 67 31 18 17 38 26 59 26 31 0 32 1 32 43 0 27 -30 130 -82 285 l-82 242 -35 -1 c-20 0 -43 -3 -51 -6z"></path></g></g><g id="l4gF7kvZ0lQdosVdS1CkiGx" fill="rgb(231,227,253)" style="transform: none;"><g style="transform: none;"><path id="plVYrVhx5" d="M529 2553 c-10 -2 -18 -19 -22 -44 -4 -34 -1 -43 25 -69 16 -17 31 -30 34 -30 2 0 4 18 4 40 0 22 5 40 10 40 6 0 10 7 10 15 0 8 9 20 20 27 11 7 20 16 20 20 0 8 -73 9 -101 1z"></path><path id="pKTZu0tqa" d="M1067 2540 c-3 -10 1 -25 9 -31 12 -10 20 -7 39 11 29 27 24 40 -14 40 -20 0 -30 -6 -34 -20z"></path><path id="pFolxHaIp" d="M1255 2538 c4 -13 7 -48 6 -78 -1 -52 -4 -57 -47 -96 -52 -47 -88 -108 -80 -136 3 -14 -4 -28 -22 -43 -23 -20 -25 -26 -15 -48 8 -18 9 -27 0 -36 -8 -8 -3 -11 20 -11 17 0 35 6 41 13 17 20 42 99 42 134 0 25 5 32 23 35 19 3 22 10 25 56 3 49 5 52 29 52 29 0 52 25 53 56 0 12 10 25 25 32 21 10 25 19 25 52 l0 40 -66 0 c-64 0 -66 -1 -59 -22z"></path><path id="p13C201SYP" d="M1735 2550 c-4 -6 -25 -18 -47 -27 -40 -16 -40 -17 -35 -59 4 -41 3 -42 -28 -48 -18 -4 -38 -13 -45 -21 -7 -8 -18 -15 -24 -15 -6 0 -17 -9 -24 -20 -7 -11 -22 -20 -35 -20 -24 -1 -67 -32 -67 -49 0 -6 -13 -17 -30 -26 -16 -8 -34 -24 -40 -34 -14 -27 -13 -124 2 -139 9 -9 7 -12 -10 -12 -28 0 -44 -38 -40 -94 3 -39 5 -41 40 -46 35 -5 78 -43 78 -69 0 -6 16 -11 35 -11 30 0 35 -4 35 -22 1 -57 66 -77 125 -38 24 16 47 20 112 20 45 0 85 5 88 10 3 6 21 10 39 10 33 0 34 2 51 63 9 34 15 78 13 97 -3 32 -6 35 -39 38 -32 3 -36 6 -32 27 4 20 13 24 61 32 l57 8 3 48 c2 26 -1 47 -6 47 -4 0 -6 26 -4 59 l4 58 -32 7 c-18 3 -43 6 -55 6 -20 0 -22 4 -17 49 2 29 0 51 -6 55 -7 4 -4 14 8 26 25 25 27 85 4 94 -26 10 -132 7 -139 -4z"></path><path id="p1GwN0dHyE" d="M610 2385 c0 -62 9 -85 35 -85 19 0 21 5 19 38 -3 52 -3 52 -15 52 -7 0 -18 8 -25 18 -12 15 -13 12 -14 -23z"></path><path id="p179g26ySk" d="M920 2280 c-11 -7 -12 -12 -3 -21 9 -9 5 -17 -18 -36 -33 -28 -31 -42 6 -38 34 4 33 -26 0 -90 -20 -37 -23 -50 -14 -62 7 -7 18 -12 25 -9 19 7 31 -19 26 -54 -4 -27 -6 -28 -26 -18 -11 6 -27 20 -35 30 -7 11 -20 17 -28 14 -8 -3 -23 0 -33 7 -11 8 -37 12 -59 10 -32 -2 -43 1 -51 18 -9 15 -15 18 -24 9 -10 -8 -15 -5 -19 11 -8 28 -27 15 -27 -19 0 -65 8 -73 69 -70 51 1 64 -3 139 -47 45 -26 85 -52 88 -57 3 -4 23 -8 45 -8 29 0 41 5 46 18 3 9 15 29 25 45 11 16 22 51 24 85 4 44 3 53 -6 40 -15 -24 -93 -19 -98 6 -2 9 1 16 7 16 6 0 20 9 32 21 l21 21 -22 23 -21 23 21 15 21 14 -26 17 c-14 9 -24 20 -24 24 1 4 1 22 0 40 -1 26 -5 32 -23 32 -13 0 -30 -5 -38 -10z"></path><path id="pavV7sFtV" d="M73 1872 c10 -10 17 -28 17 -39 0 -29 33 -56 48 -41 9 9 12 9 14 -2 0 -8 2 -19 3 -25 2 -5 3 -18 4 -28 1 -17 48 -43 59 -32 3 3 -3 20 -13 38 -11 18 -20 51 -20 75 0 42 -2 44 -40 58 -22 7 -51 14 -64 14 -23 0 -23 -1 -8 -18z"></path><path id="p1uRwLGYc" d="M740 1707 c0 -24 4 -47 9 -52 5 -6 11 -26 13 -45 3 -34 4 -35 51 -38 32 -2 47 -7 47 -17 0 -8 15 -28 33 -44 36 -35 93 -43 104 -15 3 8 2 61 -3 116 l-9 101 -55 18 c-30 10 -85 18 -122 18 l-68 1 0 -43z m89 -27 c27 14 31 13 31 -9 0 -11 7 -26 15 -35 8 -8 15 -22 15 -30 0 -23 -36 -20 -53 4 -8 12 -21 18 -29 15 -10 -4 -17 1 -21 12 -2 10 -8 26 -12 37 -7 16 -6 17 13 7 16 -8 28 -9 41 -1z"></path><path id="pt049H1WV" d="M1 1618 c0 -28 53 -72 76 -64 8 4 22 1 29 -5 28 -23 15 36 -14 64 -37 36 -92 38 -91 5z"></path><path id="p1B7OOGAPd" d="M200 1614 c0 -8 6 -14 14 -14 8 0 17 -8 20 -18 9 -26 86 -18 86 8 0 25 -8 29 -69 33 -38 3 -51 1 -51 -9z"></path><path id="ptFGdvCZx" d="M2100 1538 c-60 -165 -150 -445 -150 -468 0 -35 16 -48 25 -19 l7 21 24 -23 c15 -14 24 -17 24 -10 0 17 77 7 118 -15 35 -18 49 -18 61 3 8 14 12 15 25 4 11 -9 16 -10 16 -2 0 6 16 11 38 11 21 0 32 -4 25 -8 -10 -6 -19 -83 -14 -129 1 -10 23 -22 43 -23 15 -1 55 -46 60 -68 7 -25 -23 -49 -44 -36 -7 4 -28 7 -48 7 -45 -1 -93 31 -70 46 12 9 9 16 -20 46 -18 19 -42 35 -51 35 -10 0 -26 14 -36 30 -23 40 -50 47 -76 21 l-21 -20 27 -10 c16 -6 32 -24 41 -46 11 -25 19 -33 30 -29 20 8 20 -9 1 -45 -12 -24 -12 -31 -1 -40 7 -6 16 -8 20 -4 4 4 18 -5 32 -21 18 -18 31 -25 43 -20 9 4 24 6 34 6 15 -1 14 2 -5 18 l-23 19 31 -11 c18 -6 30 -16 28 -22 -2 -6 11 -21 29 -32 27 -18 36 -19 50 -9 9 6 14 15 10 18 -9 9 8 8 32 -3 11 -5 14 -9 6 -9 -11 -1 -11 -4 -1 -17 18 -21 79 -47 113 -48 l27 -1 0 333 0 334 -30 -7 c-19 -4 -30 -3 -30 4 0 6 -21 11 -50 11 -36 0 -50 4 -50 14 0 8 -11 17 -25 20 -15 4 -25 13 -25 25 0 10 -9 21 -20 24 -11 3 -20 12 -20 19 0 8 -11 20 -25 26 -16 8 -28 23 -31 42 -4 16 -10 30 -15 30 -5 0 -9 11 -9 24 0 19 -6 24 -37 30 -70 11 -80 8 -93 -26z m385 -488 c4 -6 -14 -9 -47 -8 l-53 1 45 7 c25 4 46 8 47 8 1 1 5 -2 8 -8z"></path><path id="pCzRhCywx" d="M369 1360 c-1 -5 -2 -15 -3 -21 -1 -6 14 -13 32 -14 21 -2 32 2 32 11 0 23 -58 46 -61 24z"></path><path id="p11PE5R1pt" d="M489 1296 c9 -10 8 -15 -2 -19 -23 -9 -13 -176 15 -234 8 -16 8 -26 -1 -37 -16 -19 -88 -19 -95 1 -5 12 -11 11 -32 -6 -15 -12 -31 -21 -37 -21 -22 0 -86 36 -87 48 0 8 -16 12 -45 12 -44 0 -45 -1 -45 -33 0 -29 5 -35 39 -50 45 -20 153 -24 286 -11 l90 9 3 38 c2 24 -5 54 -18 82 -15 32 -23 72 -27 140 -6 93 -6 95 -31 95 -20 0 -22 -3 -13 -14z"></path><path id="p12ra6QuJu" d="M1306 1074 c-3 -9 -6 -37 -6 -64 0 -53 8 -60 66 -60 34 0 34 1 34 44 0 72 -14 96 -54 96 -22 0 -36 -6 -40 -16z"></path><path id="ppU8atYu7" d="M525 851 c-11 -5 -58 -11 -104 -14 -90 -7 -111 -17 -111 -52 0 -20 4 -23 38 -19 76 8 158 21 174 28 9 4 30 8 45 9 26 2 83 37 83 51 0 9 -101 6 -125 -3z"></path><path id="p15eKRoxzq" d="M1270 802 c0 -10 -7 -27 -15 -38 -12 -16 -22 -104 -11 -104 12 0 71 65 68 75 -1 7 4 18 13 25 12 10 21 6 50 -21 20 -19 43 -34 51 -34 8 0 19 -7 24 -15 7 -11 10 -6 10 20 0 44 -15 60 -56 60 -26 0 -33 4 -36 23 -3 19 -10 22 -50 25 -41 3 -48 0 -48 -16z"></path><path id="pck8KRWB5" d="M1796 653 c-9 -26 -16 -67 -16 -92 1 -41 2 -44 14 -28 7 9 20 15 27 12 9 -3 21 10 32 35 16 33 16 45 6 79 -17 57 -42 55 -63 -6z"></path><path id="pcYIzbtrB" d="M540 676 c0 -14 -21 -26 -46 -26 -9 0 -13 4 -10 9 9 13 -16 20 -36 9 -10 -4 -54 -13 -99 -19 -74 -10 -119 -30 -119 -51 0 -5 30 -9 68 -9 37 -1 58 -3 47 -6 -11 -2 -29 -8 -40 -13 -45 -19 -90 -30 -126 -30 -21 0 -58 -4 -81 -10 -24 -5 -55 -12 -71 -15 -25 -5 -27 -9 -27 -51 0 -45 1 -46 27 -39 37 9 53 23 47 40 -4 10 1 13 21 9 14 -2 46 5 73 16 36 16 58 20 93 15 34 -5 50 -3 61 8 8 9 33 20 56 26 23 7 44 16 47 21 3 6 16 5 33 -1 24 -10 30 -7 58 25 17 20 36 36 43 36 6 0 11 15 11 35 0 24 -5 35 -15 35 -8 0 -15 -6 -15 -14z m-137 -83 c-7 -2 -19 -2 -25 0 -7 3 -2 5 12 5 14 0 19 -2 13 -5z"></path><path id="p1GkoxfMGd" d="M1349 584 c-10 -13 -10 -20 4 -43 15 -26 15 -29 -3 -47 -25 -26 -29 -64 -8 -77 18 -12 28 -7 32 15 1 7 5 19 9 26 5 6 6 16 3 21 -3 5 1 22 9 38 12 24 12 34 2 56 -14 31 -29 34 -48 11z"></path><path id="p17jcZTvsj" d="M2311 526 c-8 -10 -6 -19 9 -39 11 -14 20 -30 20 -36 0 -6 7 -11 15 -11 8 0 15 9 15 20 0 11 5 20 11 20 15 0 3 16 -30 39 -24 17 -31 18 -40 7z"></path><path id="p1GrgGi53A" d="M1117 453 c-4 -3 -7 -14 -7 -23 0 -17 -55 -98 -107 -157 -18 -22 -37 -33 -55 -33 -23 0 -29 7 -45 58 -15 43 -25 58 -41 60 -12 2 -22 -1 -22 -6 0 -6 -14 -9 -30 -8 -21 2 -37 -5 -53 -22 -28 -30 -58 -43 -74 -30 -7 5 -17 7 -22 4 -15 -9 -41 -67 -36 -77 20 -31 -62 -107 -99 -93 -11 4 -16 0 -16 -11 0 -18 -57 -75 -75 -75 -6 0 -16 -10 -24 -21 -13 -22 -13 -22 49 -16 50 4 67 10 84 29 12 14 34 31 49 38 17 9 30 25 34 41 3 19 13 29 27 31 16 2 22 11 24 40 2 25 10 41 23 48 10 6 19 17 19 25 0 11 12 15 40 15 l40 0 1 -42 c1 -24 1 -64 -1 -89 -1 -26 3 -50 9 -53 6 -4 11 -25 11 -47 l0 -39 102 0 c56 0 98 3 95 6 -3 4 3 18 13 32 14 17 17 28 10 37 -22 26 25 155 66 182 13 8 24 20 24 26 0 5 7 15 15 21 14 10 26 59 25 96 0 8 0 25 0 38 0 16 -6 22 -23 22 -13 0 -27 -3 -30 -7z"></path><path id="poDDygjmE" d="M2450 338 c0 -74 8 -88 47 -88 33 0 34 1 19 22 -9 12 -16 34 -16 49 0 17 -9 32 -25 43 l-25 16 0 -42z"></path><path id="pdsNYWrJk" d="M1700 301 c0 -69 6 -81 45 -81 l33 0 -11 43 c-5 23 -16 46 -24 50 -7 4 -13 15 -13 22 0 8 -7 15 -15 15 -11 0 -15 -12 -15 -49z"></path><path id="p1hu5prNx" d="M1760 170 c0 -19 -5 -30 -14 -30 -7 0 -16 -10 -19 -22 -2 -13 -8 -31 -12 -40 -5 -14 -2 -18 14 -18 23 0 26 -11 11 -41 -10 -17 -7 -19 25 -19 32 0 35 3 35 28 0 15 -5 33 -12 40 -9 9 -6 12 14 12 25 0 26 1 17 40 -9 39 -35 80 -51 80 -5 0 -8 -13 -8 -30z"></path><path id="pRmpFpq5i" d="M330 150 c-31 -31 -13 -46 34 -29 24 9 36 19 34 29 -5 24 -44 24 -68 0z"></path><path id="p4zour8fO" d="M1187 164 c-4 -4 -4 -17 -1 -30 5 -19 1 -26 -19 -33 -25 -10 -41 -36 -32 -52 3 -5 1 -18 -5 -29 -9 -17 -8 -20 13 -20 15 0 27 7 31 18 6 19 28 54 38 62 18 14 18 57 0 73 -10 9 -22 14 -25 11z"></path></g></g><g id="l7aVoGaSGoADLEEnyEdJGpb" fill="rgb(234,213,255)" style="transform: none;"><g style="transform: none;"><path id="pH64cWtt3" d="M516 2523 c9 -21 20 -55 25 -76 5 -21 16 -49 25 -62 14 -22 14 -24 -8 -28 -15 -3 -10 -5 15 -6 l37 -1 0 50 c0 31 -9 70 -24 105 -22 49 -28 55 -56 55 l-30 0 16 -37z"></path><path id="p1DTO766eO" d="M1094 2549 c-11 -18 13 -34 31 -19 8 7 15 16 15 21 0 13 -38 11 -46 -2z"></path><path id="pCHXbpLaO" d="M1350 2535 c0 -17 -8 -29 -25 -37 -16 -7 -25 -19 -25 -34 0 -13 -16 -38 -39 -60 -27 -25 -41 -47 -43 -68 -2 -23 -9 -32 -25 -34 -26 -4 -25 -2 -27 -59 -2 -38 0 -43 20 -43 13 0 25 8 29 19 3 10 23 38 45 61 36 39 40 48 40 97 0 29 4 53 8 53 9 0 25 -183 27 -305 1 -38 2 -81 4 -95 l2 -25 10 24 c12 30 26 19 35 -27 5 -25 3 -32 -10 -32 -19 0 -19 -3 -5 -52 6 -22 16 -38 25 -38 8 0 17 -7 20 -15 4 -10 20 -15 45 -15 35 0 39 3 39 24 0 19 -4 23 -20 19 -12 -3 -20 0 -20 7 0 6 -12 27 -26 45 -14 19 -23 38 -20 43 7 12 -13 124 -25 136 -12 13 -11 53 1 77 6 10 24 26 40 34 17 9 30 20 30 26 0 12 40 48 54 49 4 0 17 11 28 25 11 14 25 25 33 25 16 0 25 22 25 64 0 18 5 37 11 43 6 6 9 28 7 49 l-3 39 -132 3 -133 3 0 -26z"></path><path id="p12iqT7I4m" d="M1115 2118 c-11 -12 -33 -50 -49 -83 -16 -33 -34 -69 -39 -80 -6 -11 -17 -32 -25 -47 -15 -31 -22 -34 -41 -15 -10 10 -12 5 -9 -23 3 -34 4 -35 48 -35 41 0 45 2 50 30 4 17 19 48 33 69 15 21 27 44 27 51 0 6 7 26 16 43 8 18 14 49 12 73 l-3 41 -20 -24z"></path><path id="pdHolEV9q" d="M660 1983 c0 -21 17 -98 37 -170 30 -107 41 -133 55 -133 11 0 18 7 18 19 0 16 7 18 55 16 54 -2 55 -2 55 26 0 15 -4 31 -10 34 -5 3 -10 21 -10 40 0 19 -4 37 -10 40 -5 3 -10 19 -10 35 0 16 5 32 10 35 21 13 8 34 -34 55 -54 26 -116 37 -116 21 0 -6 -4 -11 -10 -11 -5 0 -10 7 -10 15 0 8 -4 15 -10 15 -5 0 -10 -17 -10 -37z"></path><path id="p3hZbX6F1" d="M1874 1894 c-4 -14 -13 -20 -27 -18 -12 1 -33 -5 -46 -13 -16 -10 -39 -14 -68 -10 -65 7 -83 0 -83 -34 0 -29 1 -29 60 -29 41 0 61 4 67 14 5 9 28 16 63 18 54 3 55 3 58 37 4 39 -15 68 -24 35z"></path><path id="p1CtrnouVi" d="M1450 1810 c-6 -12 -10 -42 -8 -68 3 -46 4 -47 37 -50 52 -5 81 15 81 55 0 18 -4 33 -10 33 -5 0 -12 11 -16 25 -5 20 -12 25 -40 25 -23 0 -37 -6 -44 -20z"></path><path id="p4ghER3cq" d="M920 1706 c0 -7 8 -16 18 -18 16 -4 20 -19 25 -84 4 -43 4 -81 -1 -86 -7 -7 -67 42 -74 61 -1 6 -22 13 -45 17 -39 6 -43 4 -43 -14 0 -27 41 -52 85 -52 31 0 35 -3 35 -25 0 -63 51 -91 113 -62 22 10 27 19 27 50 0 20 -4 37 -9 37 -15 0 -25 41 -22 88 2 24 -3 56 -9 73 -11 26 -17 29 -56 29 -31 0 -44 -4 -44 -14z"></path><path id="pOg8ndW1s" d="M1635 1679 c-48 -26 -55 -35 -55 -76 0 -30 -3 -33 -30 -33 -29 0 -30 -2 -30 -42 0 -23 8 -65 17 -95 16 -52 17 -53 55 -53 l38 0 0 58 c-1 31 -7 74 -14 95 l-14 37 28 0 c15 0 33 -7 40 -15 18 -22 83 -19 105 5 10 11 26 20 36 20 20 0 34 47 27 91 -3 23 -7 24 -83 27 -66 2 -87 -1 -120 -19z"></path><path id="pytxU8Sld" d="M930 1613 c0 -15 -2 -16 -10 -3 -11 18 -25 7 -17 -15 10 -25 37 -18 37 10 0 14 -2 25 -5 25 -3 0 -5 -8 -5 -17z"></path><path id="puLPTZEEP" d="M503 1174 c4 -57 13 -101 27 -130 12 -24 19 -48 16 -52 -3 -5 -45 -12 -93 -16 -49 -4 -96 -7 -105 -8 -10 -1 -18 -10 -18 -20 0 -21 56 -34 98 -23 15 4 71 12 125 18 l97 10 0 45 c0 66 -29 152 -52 152 -15 0 -18 8 -18 43 0 36 -4 44 -27 55 -54 24 -57 20 -50 -74z"></path><path id="pVoQtn3Ic" d="M1267 833 c-4 -3 -7 -21 -7 -40 0 -26 4 -33 20 -33 11 0 20 7 20 15 0 24 25 17 53 -15 15 -16 33 -27 40 -24 8 3 26 -9 41 -26 36 -44 58 -34 54 22 -3 41 -5 43 -38 46 -19 2 -37 7 -40 11 -3 4 -18 17 -34 29 -28 21 -94 31 -109 15z"></path><path id="p9m2i548E" d="M1217 743 c-4 -3 -7 -20 -7 -37 0 -17 -6 -42 -14 -56 -76 -140 -86 -162 -86 -199 0 -33 -4 -41 -18 -41 -22 0 -44 -22 -63 -65 -11 -24 -21 -31 -51 -33 -31 -3 -38 -8 -47 -34 -13 -37 -14 -95 -2 -102 5 -3 12 4 15 17 l7 22 9 -22 c5 -13 13 -23 17 -23 16 0 34 17 31 28 -2 6 10 26 25 44 55 64 107 142 107 160 0 10 6 21 14 24 8 3 19 25 25 49 6 24 15 47 21 50 5 3 10 14 10 24 0 10 8 26 19 35 10 9 24 44 31 77 7 33 17 62 21 65 5 3 9 9 9 15 0 10 -63 13 -73 2z"></path><path id="pMNDjD67o" d="M795 320 c-10 -11 -26 -20 -36 -20 -10 0 -21 -4 -24 -10 -3 -5 -14 -10 -24 -10 -30 0 -72 -49 -65 -76 5 -18 0 -26 -25 -39 -18 -9 -29 -20 -26 -25 7 -11 -34 -50 -52 -50 -7 0 -20 -11 -29 -25 -9 -14 -24 -25 -34 -25 -9 0 -25 -9 -35 -20 -18 -20 -17 -20 191 -20 l209 0 11 35 c9 29 8 40 -7 64 -15 25 -16 34 -5 65 7 19 15 39 19 42 14 14 7 26 -12 21 -18 -4 -19 -1 -14 47 7 62 10 66 22 35 l10 -24 0 28 c1 23 -3 27 -27 27 -16 0 -37 -9 -47 -20z"></path><path id="pldaoi6G" d="M1720 253 c0 -18 -4 -33 -10 -33 -6 0 -6 -9 -1 -22 5 -13 16 -50 25 -83 22 -79 37 -107 53 -101 7 3 15 1 18 -4 4 -6 21 -10 40 -10 l34 0 -34 55 c-18 31 -38 61 -43 68 -5 7 -12 30 -15 52 -6 49 -16 75 -29 75 -6 0 -17 8 -24 18 -12 15 -13 14 -14 -15z"></path><path id="p2XJhbTf0" d="M881 248 c0 -7 4 -22 9 -33 7 -17 9 -15 9 13 1 17 -3 32 -9 32 -5 0 -10 -6 -9 -12z"></path></g></g><g id="l10KP8dEBUqca8G8E37M5MW" fill="rgb(221,216,254)" style="transform: none;"><g style="transform: none;"><path id="pTEOIS1Wb" d="M1690 2553 c-25 -9 -40 -35 -40 -68 0 -26 -5 -33 -35 -44 -20 -7 -41 -21 -48 -32 -6 -10 -15 -19 -20 -19 -12 0 -77 -54 -77 -64 0 -4 7 -6 15 -2 8 3 15 2 15 -3 0 -20 41 -18 58 3 9 12 24 25 32 29 8 4 26 14 40 22 22 13 26 13 36 0 10 -14 13 -13 24 0 7 9 10 18 6 22 -3 3 2 15 11 26 17 18 17 20 -4 36 -21 16 -21 16 19 36 23 11 48 30 56 43 14 22 14 22 -29 21 -24 0 -51 -3 -59 -6z"></path><path id="p2ocW0qDf" d="M1825 2550 c-3 -5 3 -15 14 -22 15 -9 17 -16 10 -31 -10 -18 -11 -18 -24 0 -13 16 -14 15 -15 -17 0 -19 7 -48 15 -63 13 -25 13 -32 1 -49 -10 -13 -12 -26 -6 -37 5 -9 12 -33 15 -53 3 -22 12 -38 19 -38 17 0 27 25 19 46 -5 14 -1 15 28 9 44 -9 45 -10 33 -43 -8 -22 -15 -27 -41 -25 -26 2 -30 -1 -30 -22 0 -13 8 -33 18 -44 25 -27 5 -44 -39 -31 -35 10 -37 8 -21 -21 8 -15 7 -24 -3 -36 -12 -15 -6 -16 61 -9 40 3 77 9 82 12 5 3 9 18 9 33 0 15 4 31 9 37 4 5 19 48 32 97 l24 87 167 0 168 0 0 -40 c0 -22 4 -40 9 -40 5 0 11 -9 14 -20 4 -15 14 -20 36 -20 17 0 46 9 66 20 20 11 42 20 50 20 12 0 15 17 15 88 0 55 -4 92 -12 100 -9 9 -9 12 0 12 8 0 12 19 12 55 l0 55 -364 0 c-224 0 -367 -4 -371 -10z m125 -395 c0 -19 -20 -29 -32 -17 -15 15 -2 43 17 36 8 -3 15 -12 15 -19z"></path><path id="pCV5cCXR7" d="M1296 2088 c-16 -23 -21 -84 -10 -125 5 -19 13 -23 50 -23 47 0 63 23 23 33 -18 5 -20 11 -14 34 3 15 14 36 23 46 14 16 14 19 2 27 -13 8 -12 10 3 10 9 0 17 5 17 10 0 6 -18 10 -39 10 -30 0 -44 -6 -55 -22z"></path><path id="pgsYnbjqT" d="M1790 2035 c-7 -8 -19 -15 -26 -15 -8 0 -14 -7 -14 -15 0 -17 75 -22 85 -5 11 19 57 11 62 -10 10 -37 33 -23 33 20 l0 40 -64 0 c-44 0 -67 -5 -76 -15z"></path><path id="p7Mm4BEID" d="M2447 1974 c-18 -18 1 -148 26 -181 5 -7 25 -13 43 -13 l34 0 -1 63 c0 34 -5 78 -12 97 -10 30 -17 35 -47 38 -20 2 -39 0 -43 -4z"></path><path id="pD4ef4knk" d="M1497 1906 c-37 -33 -38 -35 -31 -85 6 -44 8 -49 19 -35 11 15 13 14 19 -9 3 -15 12 -27 18 -27 7 0 3 -7 -8 -15 -18 -14 -18 -14 9 -15 15 0 71 21 125 47 95 47 96 47 62 53 -26 4 -31 7 -17 12 9 4 17 12 17 17 0 17 -78 4 -116 -19 -19 -12 -36 -21 -37 -19 -2 2 -8 11 -15 20 -10 13 -9 22 3 45 18 35 19 64 3 64 -7 -1 -30 -16 -51 -34z"></path><path id="p83LqDp5J" d="M170 1765 c0 -14 32 -65 40 -65 15 0 12 17 -6 45 -15 23 -34 34 -34 20z"></path><path id="ppHegK47k" d="M0 1679 c0 -37 1 -39 32 -39 25 0 29 3 20 12 -7 7 -12 22 -12 34 0 13 -8 24 -20 27 -17 4 -20 0 -20 -34z"></path><path id="pKJA3jfdU" d="M904 1626 c-7 -29 1 -46 22 -46 14 0 19 26 8 54 -9 23 -23 19 -30 -8z"></path><path id="pxHUDJe5C" d="M136 1631 c-4 -5 -2 -12 3 -16 17 -10 170 -29 178 -22 15 16 -21 32 -75 33 -32 1 -67 4 -79 8 -12 4 -24 2 -27 -3z"></path><path id="pS1w5TYVL" d="M105 1590 c3 -5 8 -10 11 -10 3 0 2 5 -1 10 -3 6 -8 10 -11 10 -3 0 -2 -4 1 -10z"></path><path id="pCaY61ibh" d="M883 1553 c4 -3 10 -3 14 0 3 4 0 7 -7 7 -7 0 -10 -3 -7 -7z"></path><path id="pNOwB8WnU" d="M395 1340 c10 -11 33 -22 51 -26 18 -3 38 -12 45 -20 6 -8 15 -14 20 -14 12 0 12 67 0 74 -5 4 -7 -3 -4 -14 7 -25 -7 -25 -57 0 -22 11 -47 20 -56 20 -16 0 -16 -2 1 -20z"></path><path id="pjWMwdQtj" d="M2150 1131 c0 -10 24 -40 53 -68 28 -27 58 -61 66 -76 8 -14 30 -44 50 -66 50 -55 81 -97 81 -110 0 -6 16 -11 35 -11 43 0 44 12 3 61 -58 66 -110 139 -101 140 4 1 37 3 73 5 36 1 84 5 108 9 37 5 42 9 42 32 l0 26 -140 -7 -141 -6 -48 45 c-51 48 -81 57 -81 26z"></path><path id="p9QYBF0GY" d="M77 1063 c-4 -3 -7 -21 -7 -39 0 -42 21 -54 94 -54 57 0 70 11 39 29 -17 10 -17 10 0 11 10 0 17 8 17 20 0 13 -7 20 -20 20 -11 0 -20 5 -20 10 0 11 -93 14 -103 3z"></path><path id="praHuUAnt" d="M2012 1053 c4 -20 39 -30 116 -32 45 -1 52 2 52 18 0 25 -19 31 -102 31 -61 0 -69 -2 -66 -17z"></path><path id="pkAN1XOJq" d="M80 842 c0 -47 24 -72 68 -72 27 0 32 -4 32 -25 0 -15 6 -25 15 -25 9 0 12 6 8 16 -5 13 1 15 28 14 63 -4 78 0 106 26 l28 25 -77 -6 -78 -6 0 31 c0 20 -6 32 -17 36 -10 3 -26 10 -35 15 -10 5 -31 9 -48 9 -28 0 -30 -2 -30 -38z"></path><path id="prknmug9V" d="M2144 841 c-1 -32 3 -41 20 -46 11 -4 24 -7 29 -6 4 1 7 -3 7 -9 0 -5 6 -10 14 -10 7 0 19 -7 27 -16 21 -25 67 -39 115 -35 35 2 44 7 42 20 -2 10 -20 19 -53 26 -28 6 -60 16 -72 23 -12 6 -33 12 -47 12 -18 0 -26 5 -26 18 0 23 -27 62 -43 62 -7 0 -13 -16 -13 -39z m141 -99 c-10 -2 -25 3 -33 12 -15 14 -13 15 17 3 23 -8 28 -13 16 -15z"></path><path id="pbkNwxZuZ" d="M173 563 c-7 -2 -13 -16 -13 -29 0 -22 4 -24 44 -24 59 0 156 32 156 52 0 8 -166 10 -187 1z"></path><path id="pitX8E1o" d="M2340 472 c0 -22 6 -45 14 -51 8 -7 24 -37 37 -69 12 -31 32 -68 44 -82 13 -14 28 -42 35 -62 6 -21 15 -38 20 -38 4 0 13 -14 19 -30 6 -17 19 -43 31 -57 l20 -26 0 65 c0 67 -27 144 -55 154 -8 3 -17 22 -21 42 -4 21 -15 48 -26 62 -10 14 -33 47 -51 75 -42 65 -67 71 -67 17z"></path><path id="pwiLnwcWT" d="M840 359 c0 -11 -4 -18 -9 -15 -4 3 -18 -5 -30 -18 -12 -13 -39 -26 -59 -30 -21 -3 -51 -19 -69 -35 -34 -31 -40 -45 -24 -55 14 -9 46 7 46 24 0 10 12 16 33 18 21 2 38 12 48 28 9 13 22 24 29 24 8 0 21 7 30 16 15 15 17 15 22 -5 8 -33 23 -14 23 30 0 32 -3 39 -20 39 -14 0 -20 -7 -20 -21z"></path><path id="p2T1C2XeR" d="M368 174 c-16 -8 -28 -19 -28 -23 0 -10 25 -21 49 -21 19 0 61 35 61 50 0 15 -51 11 -82 -6z"></path><path id="pb6RAslxv" d="M1177 101 c-9 -16 -17 -36 -17 -45 0 -9 -6 -19 -14 -22 -27 -10 -27 -34 -1 -34 14 0 25 5 25 11 0 6 11 25 25 43 27 35 33 76 12 76 -7 0 -20 -13 -30 -29z"></path></g></g><g id="l6dPdUvlOVhYtyMcTpDnEvv" fill="rgb(207,228,255)" style="transform: none;"><g style="transform: none;"><path id="p8Qs5hNsd" d="M2170 1545 c0 -8 7 -15 15 -15 9 0 15 -9 15 -25 0 -14 5 -25 10 -25 6 0 10 -7 10 -15 0 -8 4 -15 9 -15 13 0 21 27 21 71 0 39 0 39 -40 39 -29 0 -40 -4 -40 -15z"></path><path id="p9B4CYkvT" d="M2290 1375 c0 -8 7 -15 16 -15 11 0 13 -6 9 -19 -5 -15 1 -21 26 -26 21 -5 27 -10 19 -15 -22 -14 23 -30 65 -23 29 5 40 2 47 -11 6 -10 19 -16 31 -14 12 1 27 -1 34 -5 13 -8 27 62 21 104 -4 31 -29 37 -160 38 -90 1 -108 -2 -108 -14z"></path><path id="psyq8LAoW" d="M20 1207 c0 -22 8 -41 24 -56 l24 -23 21 21 c23 23 18 51 -10 51 -10 0 -23 9 -29 20 -16 30 -30 24 -30 -13z"></path><path id="pErRtFZt5" d="M115 1090 c-26 -4 -30 -10 -33 -43 -2 -28 0 -37 12 -37 9 0 15 5 14 12 -4 15 33 23 41 9 4 -6 29 -14 55 -17 46 -7 48 -6 44 17 -2 18 -12 25 -46 34 -23 5 -46 15 -50 20 -4 6 -20 8 -37 5z"></path><path id="pWhiBQRaZ" d="M120 1000 c0 -4 14 -10 31 -14 39 -8 94 -8 87 0 -9 9 -118 21 -118 14z"></path><path id="pRtgQESTo" d="M160 724 c0 -63 13 -94 38 -94 21 0 28 60 11 92 -9 17 -8 24 5 33 24 18 19 25 -19 25 l-35 0 0 -56z"></path></g></g><g id="l4BbrSud0ZNYhQPUJkEPg4E" fill="rgb(231,199,255)" style="transform: none;"><g style="transform: none;"><path id="p146aqahLT" d="M540 2536 c0 -13 9 -45 20 -71 11 -26 20 -56 20 -68 0 -11 5 -36 12 -54 10 -29 17 -33 46 -33 26 0 32 3 25 13 -6 6 -20 39 -31 72 -48 140 -92 208 -92 141z"></path><path id="p1Fy54WAnB" d="M1584 2545 c-3 -8 -3 -18 0 -24 4 -5 -3 -26 -15 -46 -15 -25 -19 -39 -11 -47 6 -6 8 -17 5 -24 -8 -21 31 -17 81 9 37 18 44 26 40 44 -7 25 11 63 30 63 7 0 21 9 31 20 18 20 17 20 -69 20 -66 0 -88 -3 -92 -15z"></path><path id="p16JpH8YAz" d="M1305 2453 c-16 -15 -45 -73 -45 -88 0 -3 11 -5 24 -5 31 0 68 45 64 79 -4 31 -21 37 -43 14z"></path><path id="pjQqjQFzo" d="M1387 2434 c-4 -4 -7 -26 -7 -48 0 -35 2 -38 14 -26 18 18 25 72 10 77 -5 2 -13 0 -17 -3z"></path><path id="pdBqf44LE" d="M1325 2227 c-4 -13 -5 -48 -3 -78 3 -53 4 -54 36 -57 31 -3 43 10 22 23 -5 3 -10 25 -10 48 0 56 -9 87 -26 87 -7 0 -16 -10 -19 -23z"></path><path id="pnLeRcult" d="M822 1958 c-7 -7 -12 -18 -12 -25 0 -7 -5 -21 -11 -31 -9 -14 -7 -26 9 -53 13 -24 17 -41 11 -51 -6 -11 -3 -23 10 -39 10 -13 19 -28 19 -34 1 -16 34 -18 43 -3 5 7 9 24 9 39 0 34 22 79 38 79 7 0 20 -7 28 -15 21 -20 90 -20 98 1 3 9 6 46 6 82 l-1 67 -24 -28 c-14 -15 -25 -39 -25 -52 0 -35 -18 -40 -48 -13 -15 14 -52 39 -83 56 -42 24 -58 29 -67 20z"></path><path id="pZkgk7Zhx" d="M992 1602 c-3 -72 7 -90 42 -74 23 10 26 17 26 66 0 55 -8 66 -48 66 -14 0 -18 -12 -20 -58z"></path><path id="pKfsCBeXj" d="M1557 1622 c-22 -24 -23 -82 -1 -82 8 0 22 -16 30 -36 14 -34 17 -36 54 -32 22 2 41 0 42 -4 2 -5 26 -11 54 -14 l51 -6 16 59 c19 66 22 133 7 133 -5 0 -10 -7 -10 -15 0 -20 -10 -19 -26 3 -12 16 -13 16 -14 -4 0 -11 -9 -29 -20 -39 -18 -17 -22 -17 -37 -2 -10 8 -36 17 -57 19 -38 3 -39 4 -22 21 17 16 16 17 -17 17 -20 0 -41 -7 -50 -18z"></path><path id="pM7EeFDr1" d="M803 1583 c-15 -5 -18 -93 -4 -93 4 0 11 -24 14 -52 3 -29 17 -89 31 -133 14 -44 26 -88 26 -97 0 -14 8 -18 33 -18 60 0 72 9 85 56 15 54 16 114 2 114 -5 0 -10 24 -10 53 0 69 -32 117 -101 151 -53 27 -56 28 -76 19z"></path><path id="p9efD6yr7" d="M1191 1048 c-38 -102 -111 -330 -111 -346 0 -11 -4 -22 -8 -24 -5 -1 -25 -53 -45 -114 -36 -108 -47 -184 -27 -184 6 0 10 -4 10 -10 0 -5 -6 -10 -14 -10 -8 0 -17 -11 -20 -25 -4 -14 -11 -25 -16 -25 -6 0 -10 -19 -10 -42 l1 -43 14 30 c11 25 14 27 14 9 1 -20 27 -52 35 -43 2 2 17 34 34 71 31 67 45 82 72 83 11 0 17 15 20 50 4 29 20 75 39 110 19 33 40 71 47 85 8 14 14 40 14 58 0 25 5 35 25 42 24 9 43 50 31 69 -4 5 -2 13 4 16 12 7 45 -12 75 -42 10 -10 32 -18 49 -18 23 0 31 -4 30 -17 -1 -11 5 -18 17 -18 28 0 24 37 -17 162 -30 91 -39 108 -58 109 -11 1 -25 2 -31 4 -5 1 -16 3 -22 3 -7 1 -13 11 -13 21 0 53 -121 86 -139 39z"></path><path id="pzKCQZnpO" d="M620 1007 c0 -19 -6 -23 -34 -25 -18 -1 -64 -7 -102 -13 -38 -5 -76 -10 -84 -10 -35 -2 -146 14 -157 23 -7 5 -37 13 -67 17 -52 7 -56 6 -56 -12 0 -11 7 -25 17 -32 25 -18 9 -45 -27 -45 -29 0 -30 -2 -30 -43 0 -47 13 -67 44 -67 18 0 18 1 3 18 -22 24 -22 35 1 23 9 -5 26 -12 37 -16 16 -5 17 -8 5 -15 -10 -7 19 -10 85 -11 55 -1 103 -1 106 -1 4 1 38 4 75 7 72 6 159 21 208 36 23 7 32 5 42 -9 12 -15 13 -12 14 22 0 61 -40 176 -62 176 -12 0 -18 -8 -18 -23z"></path><path id="pWFonT9Wp" d="M1767 68 c-11 -41 2 -68 34 -68 32 0 35 10 18 59 -13 37 -44 42 -52 9z"></path></g></g><g id="l2EtvmWZ7szJ4Vjk3rgZdx4" fill="rgb(225,201,243)" style="transform: none;"><g style="transform: none;"><path id="p1CDSwUOGk" d="M579 2398 c-1 -13 -1 -26 0 -30 0 -5 -8 -8 -20 -8 -15 0 -19 -4 -15 -16 4 -9 11 -36 17 -60 8 -33 16 -44 30 -44 13 0 19 7 19 21 0 21 0 21 48 2 20 -9 15 54 -7 69 -10 7 -24 30 -32 51 -14 41 -38 50 -40 15z"></path><path id="p8T3TTtJA" d="M1733 1718 c-35 -7 -43 -13 -43 -31 0 -20 5 -22 57 -22 55 0 58 -1 55 -23 -1 -18 2 -23 15 -20 14 2 19 15 21 56 l3 52 -33 -1 c-18 -1 -52 -5 -75 -11z"></path><path id="pTwpD4bdx" d="M1790 1655 c0 -3 2 -5 5 -5 3 0 5 2 5 5 0 3 -2 5 -5 5 -3 0 -5 -2 -5 -5z"></path><path id="pgNRw7Y1g" d="M1030 1585 c0 -8 -9 -19 -20 -25 -17 -9 -18 -14 -8 -35 6 -14 15 -25 20 -25 17 0 7 -15 -17 -27 -21 -9 -27 -8 -35 5 -8 13 -10 6 -8 -28 l3 -45 39 0 c36 0 39 3 57 45 23 58 25 136 3 144 -25 9 -34 7 -34 -9z"></path><path id="pVcswhQuV" d="M507 1345 c3 -9 -2 -22 -12 -29 -13 -9 -15 -15 -7 -20 7 -4 12 -20 12 -35 0 -26 31 -67 42 -56 2 3 4 -14 4 -37 -1 -37 2 -43 22 -46 12 -2 22 -10 22 -18 0 -8 5 -14 10 -14 19 0 10 74 -22 171 -29 86 -36 99 -55 99 -16 0 -21 -4 -16 -15z"></path><path id="pviQ3vigf" d="M1245 1208 c-20 -68 -20 -128 0 -128 9 0 15 -9 15 -23 0 -24 37 -67 58 -67 7 0 12 10 12 23 0 12 5 29 10 37 8 13 11 11 16 -7 4 -13 10 -20 15 -17 17 10 9 76 -17 155 -26 78 -27 79 -60 79 -31 0 -34 -3 -49 -52z"></path><path id="pt3y1bSEW" d="M1456 728 c-9 -36 -7 -48 8 -48 8 0 16 -7 20 -15 9 -25 26 -17 26 13 0 45 -11 72 -30 72 -10 0 -20 -10 -24 -22z"></path><path id="pf6vw08zV" d="M1070 659 c0 -31 4 -48 10 -44 6 3 10 13 10 20 0 9 6 12 15 9 12 -5 15 1 13 30 -3 30 -7 36 -25 36 -21 0 -23 -5 -23 -51z"></path><path id="pshplSRzG" d="M962 372 c-12 -38 -22 -80 -22 -95 0 -29 17 -36 27 -11 3 8 11 13 19 10 8 -3 15 6 19 25 4 16 12 29 20 29 18 0 25 70 8 77 -7 3 -13 11 -13 19 0 8 -8 14 -18 14 -13 0 -24 -17 -40 -68z"></path><path id="pCKGQyhwR" d="M1660 225 c0 -25 5 -45 10 -45 6 0 10 7 10 15 0 19 26 20 34 0 3 -8 12 -12 20 -9 8 3 16 -2 19 -13 3 -13 5 -10 6 8 0 14 -4 40 -10 58 -10 28 -15 31 -50 31 l-39 0 0 -45z"></path></g></g><g id="l40YOTiuq2vwkg6w7VdA2rm" fill="rgb(208,199,255)" style="transform: none;"><g style="transform: none;"><path id="pKTYsTrso" d="M2525 2540 c-3 -11 -4 -28 -1 -38 4 -11 -1 -23 -14 -32 -19 -14 -19 -14 2 -52 12 -21 27 -37 32 -35 6 2 12 41 14 90 2 71 0 87 -12 87 -8 0 -18 -9 -21 -20z"></path><path id="p19BZuFKH" d="M1935 2523 c-30 -6 -65 -25 -65 -35 0 -17 70 -8 90 12 30 30 26 34 -25 23z"></path><path id="pkD2wcDII" d="M1605 2440 c-16 -11 -35 -25 -40 -32 -10 -13 -20 -20 -77 -56 -16 -9 -28 -20 -28 -24 0 -16 27 -7 66 21 21 16 66 40 99 54 33 14 60 31 60 39 0 20 -47 19 -80 -2z"></path><path id="pohpIVFk6" d="M1883 2098 c-44 -8 -58 -16 -84 -49 l-31 -40 66 7 66 7 0 -27 c0 -19 5 -26 20 -26 18 0 20 7 20 70 0 39 -1 69 -2 69 -2 -1 -27 -6 -55 -11z"></path><path id="pNguqGxl7" d="M1511 1916 c-13 -14 -18 -26 -12 -30 5 -4 13 0 18 7 4 7 16 16 26 20 9 3 17 11 17 17 0 18 -26 11 -49 -14z"></path><path id="p7S8MZj6p" d="M0 1910 c0 -14 7 -20 23 -20 41 0 98 -51 142 -127 11 -18 23 -33 27 -33 15 0 8 24 -19 64 -20 27 -24 41 -15 43 22 8 13 22 -30 45 -43 22 -106 48 -120 48 -5 0 -8 -9 -8 -20z"></path><path id="p4SHPmuFr" d="M2453 1845 c-7 -8 -13 -32 -13 -55 l0 -40 44 0 c68 0 76 6 76 55 0 34 -4 44 -20 48 -16 4 -20 0 -20 -20 0 -22 -2 -24 -15 -13 -8 7 -15 19 -15 26 0 18 -21 17 -37 -1z"></path><path id="p17e8zySz5" d="M1745 1839 c4 -6 -2 -13 -14 -16 -32 -8 -14 -23 29 -23 51 0 70 8 70 31 0 16 -8 19 -46 19 -29 0 -43 -4 -39 -11z"></path><path id="p109faUtfQ" d="M860 1745 c0 -8 -5 -15 -12 -15 -19 0 0 -13 40 -27 56 -19 82 -17 82 8 0 30 -28 48 -72 49 -27 0 -38 -4 -38 -15z"></path><path id="pVR5pxXqa" d="M1 1668 c-1 -54 1 -58 22 -58 13 0 38 -15 58 -36 40 -42 65 -57 80 -48 7 4 -21 39 -69 88 -44 44 -82 88 -85 96 -3 8 -6 -11 -6 -42z"></path><path id="pZGVCPMkN" d="M1013 1626 c10 -8 17 -26 17 -45 0 -19 4 -30 10 -26 6 3 10 -3 10 -14 0 -14 6 -21 20 -21 22 0 37 53 26 95 -6 22 -11 25 -54 25 -41 -1 -45 -2 -29 -14z"></path><path id="pvPOq6fdK" d="M175 1611 c16 -15 135 -26 135 -12 0 6 -3 11 -7 11 -5 1 -37 3 -73 6 -41 3 -61 1 -55 -5z"></path><path id="pa6otfSPx" d="M947 1425 c3 -28 0 -45 -6 -45 -15 0 -14 -36 2 -47 6 -5 24 -10 40 -12 25 -2 27 0 27 39 0 55 -24 110 -48 110 -16 0 -18 -6 -15 -45z"></path><path id="pxz7rTzBl" d="M2160 1136 c0 -7 20 -32 45 -55 25 -23 45 -45 45 -49 0 -4 19 -26 41 -47 42 -41 44 -40 20 8 -8 15 -12 29 -10 32 4 3 140 12 232 14 19 1 27 6 27 20 0 27 -55 33 -183 19 l-107 -12 -43 42 c-44 43 -67 53 -67 28z"></path><path id="p19HuQfyIK" d="M1971 1078 c0 -28 2 -30 9 -13 12 28 12 45 0 45 -5 0 -10 -15 -9 -32z"></path><path id="p15mvFcJto" d="M2018 1083 c-20 -5 -24 -28 -7 -39 6 -3 44 -7 85 -8 61 -2 74 0 72 12 -5 23 -106 47 -150 35z"></path><path id="pNgz1QLKX" d="M66 1034 c-10 -26 -7 -69 6 -82 9 -9 9 -12 0 -12 -13 0 -17 -66 -6 -94 10 -27 44 -20 44 9 0 21 5 25 28 25 32 0 71 33 53 45 -6 3 -11 17 -11 30 0 19 -10 30 -40 45 -27 14 -38 25 -34 35 4 10 0 15 -14 15 -11 0 -23 -7 -26 -16z"></path><path id="p1FR4xhr6g" d="M2086 971 c-3 -4 15 -37 39 -74 23 -36 42 -74 41 -84 -1 -13 7 -19 32 -21 18 -2 32 1 32 7 0 6 -4 11 -9 11 -4 0 -30 36 -56 80 -46 75 -69 99 -79 81z"></path><path id="p1CbJxKJNu" d="M2340 930 c0 -5 5 -10 11 -10 5 0 7 5 4 10 -3 6 -8 10 -11 10 -2 0 -4 -4 -4 -10z"></path><path id="pziZjXLPr" d="M182 834 c-6 -3 -10 -9 -7 -14 3 -5 -4 -11 -15 -15 -24 -8 -26 -28 -5 -45 8 -7 15 -19 15 -26 0 -8 5 -14 10 -14 6 0 10 7 10 15 0 15 15 20 93 29 44 5 107 39 107 58 0 4 -35 8 -77 8 -43 0 -87 2 -98 5 -11 2 -26 2 -33 -1z"></path><path id="p3NJ1rc6N" d="M2395 720 c3 -5 12 -10 20 -10 8 0 17 -5 21 -12 5 -7 3 -8 -6 -3 -9 5 -11 4 -6 -4 4 -6 12 -9 17 -5 5 3 34 -4 64 -15 l55 -21 0 30 c0 25 -5 30 -37 39 -49 14 -136 14 -128 1z"></path><path id="p14qHjRvmR" d="M473 645 c-29 -7 -92 -16 -140 -20 -49 -4 -91 -9 -96 -12 -4 -2 -10 3 -13 11 -12 32 -24 14 -24 -37 l0 -52 58 2 c126 6 213 36 266 92 33 34 28 35 -51 16z"></path><path id="pNbk38BDE" d="M2340 497 c0 -7 4 -17 10 -23 5 -5 43 -74 84 -154 40 -80 86 -165 100 -190 26 -45 26 -45 26 -15 0 17 -15 60 -34 96 -18 36 -36 78 -40 93 -4 15 -10 25 -14 22 -9 -5 -72 116 -72 138 0 15 -32 46 -48 46 -7 0 -12 -6 -12 -13z"></path></g></g><g id="l6ugo7P4P6tQB0SiC20uByk" fill="rgb(225,184,251)" style="transform: none;"><g style="transform: none;"><path id="p11vQ12Gy0" d="M522 2552 c2 -4 16 -39 31 -78 41 -99 99 -214 109 -214 17 0 8 60 -12 72 -11 7 -20 17 -20 21 0 5 -11 31 -25 58 -13 27 -27 72 -31 99 -6 45 -9 50 -31 50 -14 0 -23 -4 -21 -8z"></path><path id="p1GHlGsNc0" d="M1320 2456 c0 -8 -14 -31 -31 -51 -17 -19 -29 -41 -26 -48 3 -7 -3 -18 -13 -25 -23 -14 -100 -132 -100 -153 0 -9 -9 -28 -20 -42 -11 -14 -20 -31 -20 -37 0 -12 -18 -56 -50 -125 -11 -22 -21 -59 -23 -83 -2 -23 -6 -45 -9 -47 -7 -8 -38 6 -38 16 0 5 -8 9 -18 9 -11 0 -33 16 -51 35 -17 19 -35 35 -40 35 -18 0 -20 -31 -3 -59 16 -28 16 -31 -2 -50 -11 -12 -16 -21 -12 -21 4 0 2 -9 -4 -20 -6 -12 -7 -20 -1 -20 5 0 7 -9 4 -20 -4 -16 0 -20 19 -20 13 0 34 -9 46 -20 12 -11 27 -20 35 -20 7 0 21 -16 30 -35 10 -21 26 -37 42 -41 24 -6 29 -14 26 -41 -1 -7 7 -13 18 -13 14 0 24 12 35 48 9 26 38 110 65 187 l49 140 61 3 c45 2 61 7 61 17 0 8 -6 15 -14 15 -8 0 -17 14 -21 30 -8 38 15 77 50 86 31 8 32 20 4 34 -19 11 -20 18 -15 78 8 93 -6 264 -21 270 -7 2 -13 -3 -13 -12z"></path><path id="p17LAllvpA" d="M560 2355 c0 -9 30 -65 35 -65 2 0 -1 15 -6 32 -5 18 -9 34 -9 35 0 2 -4 3 -10 3 -5 0 -10 -2 -10 -5z"></path><path id="pf3vjgrm7" d="M600 2265 c0 -3 2 -5 5 -5 3 0 5 2 5 5 0 3 -2 5 -5 5 -3 0 -5 -2 -5 -5z"></path><path id="pfXAW6akL" d="M1380 1910 c0 -28 18 -79 31 -90 3 -3 9 -23 12 -45 4 -22 11 -41 17 -43 5 -2 10 -13 10 -25 0 -12 15 -64 32 -114 25 -69 37 -93 51 -93 10 0 17 8 17 20 0 26 16 26 30 0 16 -31 25 -110 11 -110 -6 0 -11 7 -11 15 0 8 -4 15 -10 15 -5 0 -10 -18 -10 -40 0 -43 26 -120 41 -120 5 0 9 -12 9 -26 0 -15 5 -44 12 -65 10 -36 14 -39 47 -39 l36 0 43 158 c23 86 42 167 42 179 0 31 -19 39 -28 12 -6 -14 -11 -18 -16 -11 -4 6 -13 9 -21 5 -8 -3 -15 0 -15 7 0 8 -13 11 -41 8 -37 -3 -43 0 -70 33 l-28 36 30 27 c39 35 113 72 167 84 38 9 42 8 42 -9 0 -12 7 -19 20 -19 11 0 20 7 20 15 0 9 9 41 20 72 21 60 26 128 11 137 -5 3 -11 -2 -13 -12 -3 -10 -14 -18 -26 -19 -11 -1 -41 -9 -66 -17 -26 -9 -61 -16 -79 -16 -37 0 -122 -37 -172 -75 -59 -46 -77 -1 -24 59 30 34 30 35 10 48 -16 10 -18 15 -8 27 10 12 7 13 -20 8 -22 -4 -33 -2 -37 8 -3 8 -12 15 -20 15 -7 0 -16 7 -20 15 -9 26 -26 16 -26 -15z"></path><path id="p1GlnGnvY5" d="M2377 1793 c-4 -3 -7 -23 -7 -44 0 -45 22 -62 73 -57 29 3 32 6 35 43 3 29 -1 43 -14 52 -19 14 -76 18 -87 6z"></path><path id="p13MyiAVAW" d="M770 1595 c0 -19 7 -62 17 -95 12 -46 21 -60 35 -60 10 0 18 7 18 15 0 8 9 15 20 15 11 0 20 4 20 9 0 15 -30 41 -46 41 -19 0 -18 26 2 34 37 14 121 -89 139 -172 6 -31 6 -33 -19 -26 -15 3 -26 2 -26 -4 0 -15 26 -33 35 -24 4 4 5 -3 2 -15 -4 -19 -1 -23 17 -23 18 0 25 10 39 53 19 60 22 113 7 122 -5 3 -10 -1 -10 -9 0 -28 -19 -26 -37 4 -18 30 -141 131 -175 143 -10 4 -18 11 -18 17 0 5 -4 10 -10 10 -5 0 -10 -16 -10 -35z"></path><path id="pFnU3EsuE" d="M886 1249 c-4 -14 -6 -41 -4 -60 3 -31 6 -34 37 -37 20 -2 37 2 42 10 12 18 11 108 -1 108 -5 0 -10 -9 -10 -20 0 -13 -5 -18 -15 -14 -8 4 -15 1 -15 -5 0 -23 -19 -10 -22 17 l-4 27 -8 -26z"></path><path id="p1Ecyzjtkl" d="M1212 1111 c-13 -41 -16 -101 -6 -101 4 0 12 8 19 17 12 16 14 16 36 1 13 -9 41 -32 62 -51 21 -20 44 -34 51 -31 8 3 16 -2 19 -10 10 -26 27 -18 27 12 0 47 -11 72 -31 72 -13 0 -19 -7 -19 -21 0 -15 -4 -19 -16 -15 -9 3 -18 6 -20 6 -2 0 -4 5 -4 11 0 6 -9 22 -20 36 -11 14 -20 39 -20 55 0 24 -4 29 -16 24 -13 -5 -15 -2 -11 14 4 16 0 20 -17 20 -18 0 -25 -9 -34 -39z"></path><path id="p176W05kd4" d="M1682 317 c-15 -40 -16 -107 -2 -107 6 0 10 7 10 15 0 8 6 15 14 15 16 0 31 -34 21 -50 -3 -6 1 -7 9 -4 13 5 16 -1 16 -28 0 -19 11 -61 24 -94 21 -53 27 -59 55 -62 l32 -3 -35 53 c-37 59 -96 222 -96 269 0 42 -32 39 -48 -4z"></path></g></g><g id="l2NPrzfUECoGJGlDOrycbUq" fill="rgb(177,228,255)" style="transform: none;"><g style="transform: none;"><path id="pn4e1HnSh" d="M2146 1672 c-14 -23 -36 -101 -36 -129 0 -36 16 -53 24 -25 5 14 14 17 46 14 26 -3 40 -9 40 -18 0 -8 5 -14 10 -14 6 0 10 22 10 49 0 28 -4 53 -10 56 -5 3 -10 22 -10 41 0 32 -2 34 -34 34 -19 0 -37 -4 -40 -8z"></path><path id="pb7EcCSO2" d="M2250 1421 c0 -5 6 -14 13 -18 8 -4 16 -16 20 -25 4 -13 17 -18 42 -18 l35 0 -13 33 c-12 28 -19 32 -55 35 -24 2 -42 -1 -42 -7z"></path><path id="pbIg5Klet" d="M2472 1373 c2 -10 14 -19 26 -21 13 -2 28 -14 34 -28 17 -37 28 -29 28 21 l0 45 -46 0 c-38 0 -45 -3 -42 -17z"></path><path id="pl4FWNTdn" d="M2310 1329 c0 -11 43 -19 110 -19 38 0 60 4 55 9 -11 10 -165 20 -165 10z"></path><path id="pS7aiXXQg" d="M60 1091 c0 -46 19 -62 51 -43 10 7 27 12 38 12 18 0 19 2 5 30 -11 21 -23 30 -39 30 -13 0 -30 3 -39 6 -13 5 -16 -2 -16 -35z"></path><path id="pdJKcaTC5" d="M2 864 l3 -49 48 -3 47 -3 0 33 c0 46 -9 56 -58 64 l-43 7 3 -49z"></path></g></g><g id="l3nEfe62mqrO2aRnvg9oRmq" fill="rgb(191,194,254)" style="transform: none;"><g style="transform: none;"><path id="p19Fkxvhbd" d="M1948 2527 c-16 -6 -28 -17 -28 -24 0 -17 5 -16 40 2 17 9 33 15 37 14 4 0 9 4 11 10 5 14 -24 12 -60 -2z"></path><path id="pqFjKjAtt" d="M2538 2313 c-3 -28 -28 -45 -28 -19 0 29 -18 16 -24 -18 -9 -49 1 -66 40 -66 l34 0 0 65 c0 64 -16 91 -22 38z"></path><path id="p9MXJrOLb" d="M2352 2281 c-26 -86 -6 -151 48 -151 47 0 60 9 60 44 0 44 -11 77 -22 70 -5 -3 -12 3 -15 15 -3 12 -9 21 -14 21 -5 0 -9 9 -9 20 0 38 -36 24 -48 -19z"></path><path id="pbw3TWPI9" d="M2524 1826 c5 -26 3 -35 -10 -40 -27 -10 -44 -7 -44 10 0 12 -9 14 -37 12 -35 -3 -38 -6 -41 -35 -4 -38 26 -73 61 -73 13 0 32 -9 42 -20 10 -11 29 -20 42 -20 23 0 23 2 23 100 0 95 -1 100 -21 100 -19 0 -20 -4 -15 -34z m-74 -86 c0 -16 -17 -19 -35 -6 -24 18 -11 40 16 26 10 -6 19 -15 19 -20z"></path><path id="pL498Oznv" d="M1000 1645 c0 -12 28 -35 44 -35 3 0 0 11 -6 25 -12 27 -38 34 -38 10z"></path><path id="pm2Jleav0" d="M276 1613 c-3 -3 -3 -10 0 -14 7 -12 44 -12 44 0 0 10 -36 21 -44 14z"></path><path id="pIlmiBIGh" d="M1071 1594 c0 -11 3 -14 6 -6 3 7 2 16 -1 19 -3 4 -6 -2 -5 -13z"></path><path id="p1BGyVNVrs" d="M1230 1080 c0 -11 2 -20 4 -20 2 0 6 9 9 20 3 11 1 20 -4 20 -5 0 -9 -9 -9 -20z"></path><path id="pKOl0SZJh" d="M1260 1062 c1 -13 40 -55 46 -49 11 11 -7 45 -26 50 -11 3 -20 2 -20 -1z"></path><path id="pG0QhDaN4" d="M0 976 c0 -59 2 -66 20 -66 11 0 29 -5 39 -12 15 -9 22 -8 36 5 21 22 59 23 51 2 -7 -20 27 -20 43 -1 14 17 -3 32 -31 28 -12 -2 -18 3 -18 18 0 13 -9 24 -24 30 -18 7 -23 14 -19 29 4 16 1 21 -15 21 -11 0 -34 3 -51 6 l-31 7 0 -67z"></path><path id="pI8IioSEo" d="M2164 818 c-8 -12 30 -48 51 -48 7 0 54 -13 105 -30 85 -28 209 -60 231 -60 5 0 9 7 9 15 0 8 -17 19 -42 25 -149 39 -221 61 -277 84 -75 30 -68 29 -77 14z"></path><path id="p1GxH5HHfz" d="M120 793 c0 -16 5 -34 12 -41 17 -17 58 -15 65 3 6 18 -25 57 -39 49 -5 -3 -15 0 -23 6 -13 10 -15 8 -15 -17z"></path><path id="pD7ZwHy8J" d="M123 553 c-7 -2 -13 -21 -13 -41 0 -21 4 -32 8 -25 4 6 20 15 36 19 34 8 67 34 60 46 -6 9 -71 10 -91 1z"></path></g></g><g id="l4xp8ARxmOi28J6f1iAZXsH" fill="rgb(176,204,254)" style="transform: none;"><g style="transform: none;"><path id="pC47M1WL2" d="M2437 1993 c-4 -3 -7 -28 -7 -55 0 -44 2 -48 25 -48 18 0 23 4 19 15 -4 8 -3 23 1 33 6 16 7 16 21 -2 7 -11 17 -41 20 -68 5 -37 10 -48 21 -44 8 4 17 6 19 6 2 0 4 35 4 79 l0 78 -37 7 c-49 8 -78 8 -86 -1z"></path><path id="pbcw67qcm" d="M2322 1888 c-17 -17 -14 -77 6 -118 14 -28 24 -36 49 -38 26 -3 32 0 27 12 -8 21 29 38 59 27 14 -5 27 -16 30 -23 3 -7 6 -3 6 10 1 13 -5 22 -14 22 -8 0 -15 7 -15 15 0 8 5 15 10 15 6 0 10 5 10 10 0 6 -15 10 -34 10 -35 0 -46 13 -46 51 0 15 -7 19 -38 19 -21 0 -43 -5 -50 -12z"></path><path id="p12u4IskDP" d="M2216 1473 c11 -46 23 -62 52 -69 15 -4 33 -13 40 -22 10 -13 12 -10 12 20 0 28 -5 38 -21 43 -11 4 -24 18 -29 31 -7 17 -17 24 -35 24 -23 0 -25 -3 -19 -27z"></path><path id="p1ERI0QxPY" d="M13 1053 c-24 -9 -14 -41 18 -57 24 -12 35 -13 49 -4 23 15 33 50 17 60 -13 8 -65 9 -84 1z"></path><path id="p1BLo5ysMN" d="M90 967 c-14 -6 -28 -15 -31 -20 -3 -5 -9 -8 -13 -8 -37 5 -46 0 -46 -29 0 -24 5 -31 28 -36 15 -4 32 -14 38 -22 6 -9 18 -13 27 -9 14 5 15 10 5 32 -13 29 -1 45 34 45 13 0 15 6 9 27 -8 32 -18 35 -51 20z m30 -21 c0 -17 -27 -29 -35 -16 -4 6 -3 15 0 20 9 15 35 12 35 -4z"></path><path id="pzWl1DYsm" d="M156 905 c-19 -15 -19 -15 1 -15 11 0 26 7 33 15 17 20 -7 20 -34 0z"></path><path id="pYzy9BVhD" d="M0 849 c0 -5 9 -9 20 -9 11 0 20 2 20 4 0 2 -9 6 -20 9 -11 3 -20 1 -20 -4z"></path><path id="p1BpjqvlRE" d="M150 752 c0 -35 3 -42 20 -42 11 0 20 6 20 13 0 6 3 23 7 36 5 19 3 23 -9 18 -9 -3 -21 0 -27 6 -8 8 -11 0 -11 -31z"></path><path id="p1CgOCi2e4" d="M193 597 c-4 -8 -26 -17 -47 -20 -22 -4 -43 -11 -46 -18 -6 -8 -9 -8 -14 0 -4 6 -23 11 -41 11 -40 0 -49 -19 -42 -91 3 -36 5 -40 12 -21 6 18 10 20 21 11 11 -9 14 -8 14 5 0 18 15 22 25 6 8 -12 36 -1 58 23 9 11 25 21 35 22 10 0 32 7 49 14 29 12 30 14 20 42 -12 31 -31 38 -44 16z"></path></g></g><g id="l5fRQFKMSBIXdtLqpoJvDaq" fill="rgb(147,227,255)" style="transform: none;"><g style="transform: none;"><path id="pRJTQiJiu" d="M2156 1658 c-3 -13 -5 -36 -5 -53 l1 -30 9 32 c12 43 33 56 25 16 -5 -21 -2 -34 9 -43 11 -9 12 -16 5 -25 -8 -9 -6 -14 6 -19 10 -4 14 -13 11 -26 -4 -17 0 -20 32 -20 49 0 61 14 61 70 0 48 -13 70 -40 70 -9 0 -23 11 -30 25 -18 34 -75 36 -84 3z"></path><path id="p1HD2zZQmM" d="M0 1146 c0 -109 3 -115 50 -122 8 -1 22 -5 31 -8 10 -5 19 1 27 19 8 17 20 25 36 25 24 0 24 1 10 30 -12 23 -22 30 -46 30 -27 0 -29 3 -24 24 4 16 0 29 -14 41 -11 10 -20 24 -20 31 0 12 -29 34 -44 34 -3 0 -6 -47 -6 -104z m133 -42 c9 -10 -4 -34 -18 -34 -20 0 -30 21 -14 31 17 10 24 11 32 3z"></path><path id="pJJHYoVGa" d="M65 870 c-3 -5 -3 -14 0 -20 8 -13 -6 -13 -39 0 l-26 10 0 -80 c0 -76 1 -80 24 -86 13 -3 38 -4 56 -2 36 3 52 -14 87 -94 10 -25 23 -38 35 -38 28 0 33 28 14 79 -10 25 -22 64 -28 86 -5 22 -24 56 -42 75 -19 19 -37 45 -41 58 -7 23 -29 30 -40 12z"></path></g></g><g id="legFXGfI8utmZ2lR1n4FJo" fill="rgb(190,173,254)" style="transform: none;"><g style="transform: none;"><path id="p10xXLyYkR" d="M1897 2513 c-25 -25 27 -32 59 -8 18 13 17 14 -17 15 -20 0 -39 -3 -42 -7z"></path><path id="p1e9XcUVp" d="M1832 2064 c-25 -17 -29 -44 -7 -44 9 0 31 6 50 14 32 14 34 13 38 -7 2 -13 5 -6 6 16 1 35 0 37 -32 37 -18 0 -43 -7 -55 -16z"></path><path id="p1B0rZbdQT" d="M1476 1885 c-44 -40 -46 -41 -46 -20 0 8 -4 15 -10 15 -5 0 -10 -20 -10 -45 0 -38 3 -45 20 -45 14 0 20 7 20 23 0 14 12 32 30 45 30 23 57 62 42 62 -4 0 -25 -16 -46 -35z"></path><path id="pzYbwQtKc" d="M1668 1800 c-38 -21 -57 -40 -38 -40 11 0 71 30 100 49 28 20 -22 12 -62 -9z"></path><path id="ph57xGFLg" d="M2480 1815 c0 -3 2 -5 5 -5 3 0 5 2 5 5 0 3 -2 5 -5 5 -3 0 -5 -2 -5 -5z"></path><path id="p0EEffmdq" d="M2448 1803 c7 -3 16 -2 19 1 4 3 -2 6 -13 5 -11 0 -14 -3 -6 -6z"></path><path id="px3gsWAbJ" d="M2490 1781 c-17 -5 -21 -9 -12 -15 20 -12 14 -23 -20 -35 -21 -8 -35 -8 -42 -1 -5 5 -20 10 -32 10 -13 0 -26 5 -29 10 -3 6 -19 10 -36 10 -35 0 -151 -39 -161 -54 -9 -14 -10 -86 -2 -86 4 0 12 7 19 17 11 15 14 14 33 -5 19 -19 33 -22 106 -22 97 0 136 11 136 38 0 15 9 21 41 25 51 7 56 12 36 35 -21 23 -22 42 -2 42 8 0 15 -4 15 -10 0 -5 5 -10 10 -10 6 0 10 14 10 30 0 32 -15 36 -70 21z"></path><path id="p6ROp4IUk" d="M1585 1513 c7 -40 35 -82 35 -53 0 30 -21 90 -32 90 -6 0 -8 -13 -3 -37z"></path><path id="pbe5WWsYA" d="M1550 1490 c0 -7 3 -10 7 -7 3 4 3 10 0 14 -4 3 -7 0 -7 -7z"></path><path id="pL64JzMRg" d="M1560 1456 c0 -8 4 -17 9 -20 5 -4 7 3 4 14 -6 23 -13 26 -13 6z"></path><path id="pYX1NDx82" d="M1597 1344 c-10 -11 -8 -57 4 -93 7 -21 18 -31 31 -31 11 0 18 5 16 12 -3 7 3 28 13 47 17 35 17 36 -4 42 -12 3 -24 1 -26 -4 -2 -6 -9 0 -15 12 -7 12 -15 18 -19 15z"></path><path id="p10dTjTGoa" d="M1700 1285 c0 -3 2 -5 5 -5 3 0 5 2 5 5 0 3 -2 5 -5 5 -3 0 -5 -2 -5 -5z"></path><path id="pcnM5Vz5J" d="M2160 1131 c0 -11 99 -101 111 -101 5 0 9 5 9 10 0 6 -3 10 -8 10 -4 0 -29 20 -56 45 -53 48 -56 50 -56 36z"></path><path id="p8nYbQkdz" d="M2443 1063 c-13 -2 -23 -8 -23 -12 0 -13 51 -19 100 -12 l45 7 -34 12 c-34 12 -47 13 -88 5z"></path><path id="plPVTvPUx" d="M2340 936 c0 -10 56 -90 76 -111 32 -31 26 -5 -10 43 -36 50 -66 80 -66 68z"></path></g></g><g id="l1gQs09jk1HCL24hpmX2rkI" fill="rgb(151,208,255)" style="transform: none;"><g style="transform: none;"><path id="p1GluBLSgQ" d="M2304 1900 c-6 -36 -10 -40 -35 -40 -27 0 -29 -3 -29 -39 0 -64 6 -71 60 -71 44 0 48 2 53 27 3 15 1 36 -5 46 -6 13 -6 23 3 33 20 24 27 16 34 -36 6 -41 11 -50 27 -50 10 0 17 4 13 9 -3 5 11 15 30 21 36 12 42 28 29 78 -5 18 -13 22 -43 22 -25 0 -40 6 -49 20 -8 14 -23 20 -47 20 -33 0 -35 -2 -41 -40z"></path><path id="ptipL2jio" d="M2360 1760 c0 -13 7 -20 20 -20 11 0 20 3 20 8 0 4 -9 13 -20 20 -18 11 -20 10 -20 -8z"></path><path id="p168KaUJM8" d="M0 1225 c0 -28 7 -30 33 -10 18 13 18 14 -2 24 -28 15 -31 14 -31 -14z"></path><path id="pbpDFVn3o" d="M0 1049 c0 -27 3 -29 33 -28 17 1 40 -2 50 -6 9 -4 17 -3 17 2 0 13 -50 48 -77 55 -20 5 -23 2 -23 -23z"></path><path id="p9mx7kUtK" d="M45 900 c3 -5 12 -10 20 -10 8 0 17 5 20 10 4 6 -5 10 -20 10 -15 0 -24 -4 -20 -10z"></path><path id="paTkEjgrM" d="M65 869 c-9 -13 0 -22 26 -26 16 -2 20 1 15 13 -3 8 -6 18 -6 20 0 9 -29 3 -35 -7z"></path><path id="plCFnfGAP" d="M95 796 c-35 -29 -30 -38 22 -39 21 0 44 -5 51 -10 25 -19 12 19 -16 46 l-27 26 -30 -23z"></path><path id="pldNPvYnp" d="M0 634 c0 -98 2 -110 20 -122 18 -11 20 -10 20 9 0 24 18 16 30 -15 8 -18 9 -19 9 -2 1 14 4 16 14 8 10 -8 17 -6 27 8 10 14 17 16 27 8 10 -8 13 -7 13 4 0 8 12 15 27 16 31 2 43 17 42 52 0 21 -2 22 -8 6 -6 -15 -10 -12 -24 20 -38 87 -49 99 -103 101 -27 1 -59 5 -71 9 -23 6 -23 6 -23 -102z"></path></g></g><g id="l6EWvsdW1CX4DNG6gMZZrZA" fill="rgb(224,130,255)" style="transform: none;"><g style="transform: none;"><path id="p7UbKQA8w" d="M1320 2398 c0 -83 20 -282 28 -290 8 -8 6 110 -4 260 -6 90 -24 113 -24 30z"></path><path id="p1FUcayEkZ" d="M2410 1709 c0 -10 10 -35 23 -54 19 -31 27 -35 65 -35 41 0 42 1 42 33 0 17 -4 38 -9 46 -11 17 -51 22 -51 7 0 -6 -5 -4 -10 4 -5 8 -21 16 -35 17 -19 1 -25 -3 -25 -18z"></path></g></g><g id="lZKlkOzMUr7PH0xJNwBvDC" fill="rgb(159,190,255)" style="transform: none;"><g style="transform: none;"><path id="p2ENjeh9G" d="M2492 2294 c-3 -32 -15 -37 -29 -12 l-12 23 -1 -27 c0 -34 -15 -44 -30 -21 -9 14 -10 10 -5 -22 9 -52 11 -55 46 -55 36 0 41 12 36 81 -2 30 -4 45 -5 33z"></path><path id="phFfyRkla" d="M2410 1950 c0 -5 -13 -10 -29 -10 -39 0 -42 -16 -13 -62 23 -34 26 -36 38 -20 11 13 13 14 14 3 0 -12 3 -12 12 -3 10 10 16 8 30 -10 27 -37 33 -13 12 52 -16 50 -23 60 -41 60 -13 0 -23 -4 -23 -10z"></path><path id="pOPWNOzkM" d="M2490 1945 c0 -3 2 -5 5 -5 3 0 5 2 5 5 0 3 -2 5 -5 5 -3 0 -5 -2 -5 -5z"></path><path id="pYzvcgRh8" d="M2514 1875 c6 -30 14 -55 18 -55 11 0 10 13 -3 66 -16 63 -27 55 -15 -11z"></path><path id="p5M8Emg6D" d="M2551 1914 c0 -11 3 -14 6 -6 3 7 2 16 -1 19 -3 4 -6 -2 -5 -13z"></path><path id="p06nB4soE" d="M2440 1380 c0 -14 7 -20 23 -21 97 -5 97 -5 97 19 0 20 -4 22 -60 22 -53 0 -60 -2 -60 -20z"></path><path id="pTeHmNzCo" d="M0 1041 c0 -15 6 -21 21 -21 14 0 19 5 17 17 -5 26 -38 29 -38 4z"></path><path id="pBXB0TkBk" d="M43 948 c-23 -11 -41 -53 -18 -45 7 3 17 1 23 -5 19 -19 41 -1 39 32 -2 32 -9 35 -44 18z"></path><path id="p10UpedtHp" d="M0 650 c0 -22 5 -40 10 -40 6 0 10 5 10 11 0 5 5 7 10 4 6 -4 10 8 10 29 0 29 -4 36 -20 36 -17 0 -20 -7 -20 -40z"></path></g></g><g id="l5YTmFlrPzTFlssUmBZAqCf" fill="rgb(172,158,255)" style="transform: none;"><g style="transform: none;"><path id="pxrYeRY7K" d="M1937 2116 c-3 -8 -28 -21 -56 -31 -28 -9 -51 -21 -51 -26 0 -8 47 -14 73 -10 4 0 7 -8 7 -19 0 -22 7 -25 29 -11 16 11 29 111 13 111 -5 0 -12 -6 -15 -14z"></path><path id="pfxk90qVa" d="M2255 1773 c-3 -8 -5 -26 -5 -39 0 -21 3 -24 28 -18 41 10 44 10 49 -2 2 -6 -7 -16 -19 -22 -14 -6 -17 -11 -8 -11 8 0 22 3 30 9 9 6 20 5 29 -3 12 -10 14 -9 8 6 -9 24 9 21 35 -5 20 -20 20 -22 3 -34 -29 -21 -9 -29 73 -29 l77 0 3 29 c4 30 -24 59 -60 61 -22 2 -23 -9 -2 -40 15 -23 15 -25 0 -25 -9 0 -16 5 -16 10 0 17 -110 120 -128 121 -10 0 -34 1 -54 3 -25 2 -39 -2 -43 -11z"></path><path id="pi729k98N" d="M2340 1655 c0 -3 2 -5 5 -5 3 0 5 2 5 5 0 3 -2 5 -5 5 -3 0 -5 -2 -5 -5z"></path><path id="pnMb9meyw" d="M2420 1058 c-25 -5 -75 -7 -112 -6 -56 3 -65 1 -55 -10 9 -11 30 -13 97 -8 121 9 171 17 164 27 -6 11 -33 10 -94 -3z"></path><path id="p14zUmxKfJ" d="M2240 770 c36 -24 306 -97 317 -86 7 7 -3 10 -107 36 -47 12 -111 30 -143 40 -63 22 -91 26 -67 10z"></path></g></g><g id="l5gYIo2O7w7Thenn1jmXohv" fill="rgb(108,216,255)" style="transform: none;"><g style="transform: none;"><path id="p155M3Sk4e" d="M2224 1905 c-7 -19 -14 -55 -14 -80 0 -45 0 -45 35 -45 33 0 35 2 29 25 -6 25 -5 25 20 14 28 -13 34 -34 14 -42 -7 -3 4 -6 24 -6 36 -1 37 0 28 25 -6 14 -15 34 -20 44 -6 11 -8 31 -4 45 5 20 9 23 20 14 11 -9 14 -8 14 2 0 15 -64 39 -105 39 -20 0 -29 -8 -41 -35z"></path><path id="p18HQNLntQ" d="M2170 1660 c0 -11 2 -20 4 -20 2 0 6 9 9 20 3 11 1 20 -4 20 -5 0 -9 -9 -9 -20z"></path><path id="p1AU4L3Ew0" d="M2220 1662 c-20 -16 -21 -21 -9 -40 7 -12 22 -22 33 -24 45 -7 45 -68 0 -77 -18 -3 -34 -18 -34 -33 0 -13 110 -118 124 -118 11 0 16 14 18 53 l3 52 38 3 c34 3 37 6 37 34 0 42 -78 116 -132 125 -22 3 -38 11 -38 19 0 22 -17 25 -40 6z"></path></g></g><g id="l29lPa1EnEKqckeK7Vt0wJM" fill="rgb(142,169,254)" style="transform: none;"><g style="transform: none;"><path id="pCOMKILFW" d="M2541 2333 c0 -10 4 -27 9 -38 7 -17 9 -15 9 12 1 17 -3 35 -9 38 -5 3 -10 -2 -9 -12z"></path><path id="p9JnjgW12" d="M2488 2293 c-2 -16 -8 -27 -16 -25 -8 1 -12 -7 -10 -24 4 -39 -19 -41 -36 -2 -17 38 -21 19 -6 -32 12 -43 -6 -60 -32 -30 -23 28 -28 25 -28 -18 0 -45 14 -62 51 -62 51 0 59 8 59 61 0 48 12 65 24 34 3 -9 18 -15 36 -15 28 0 30 3 30 35 0 27 -3 33 -16 28 -19 -7 -34 13 -34 44 0 33 -18 38 -22 6z"></path><path id="peHqaYbep" d="M2380 2280 c0 -11 2 -20 4 -20 2 0 6 9 9 20 3 11 1 20 -4 20 -5 0 -9 -9 -9 -20z"></path><path id="pihPGzOqO" d="M2530 2000 c0 -5 -16 -10 -35 -10 -25 0 -35 -4 -35 -16 0 -8 5 -12 10 -9 6 4 19 -13 29 -36 l20 -43 3 40 4 39 17 -35 16 -35 1 58 c0 44 -3 57 -15 57 -8 0 -15 -4 -15 -10z"></path><path id="pEpNSBGE8" d="M2170 1744 c-20 -53 -6 -110 17 -70 4 7 25 19 46 25 44 15 71 51 37 51 -11 0 -20 5 -20 10 0 6 -16 10 -35 10 -29 0 -37 -5 -45 -26z"></path><path id="p17bNwM50" d="M2271 1684 c-64 -20 -67 -28 -24 -55 53 -33 53 -33 53 -10 0 14 -6 21 -20 21 -31 0 -23 28 10 35 17 4 30 11 30 16 0 5 -1 9 -2 8 -2 -1 -23 -7 -47 -15z"></path><path id="p16VH8PxrM" d="M2465 1660 c4 -7 -2 -9 -17 -5 -13 3 -37 1 -52 -5 -21 -8 -32 -7 -42 1 -11 9 -14 6 -14 -19 0 -21 7 -35 19 -42 26 -13 81 -13 81 1 0 8 18 10 60 5 l60 -7 0 36 0 37 -40 -7 c-26 -4 -40 -3 -40 4 0 6 -5 11 -11 11 -5 0 -7 -5 -4 -10z"></path><path id="pGE4Qijs6" d="M2310 1645 c0 -3 2 -5 5 -5 3 0 5 2 5 5 0 3 -2 5 -5 5 -3 0 -5 -2 -5 -5z"></path></g></g><g id="l3A83UWnriLueSaQ8zZH9dS" fill="rgb(101,195,255)" style="transform: none;"><g style="transform: none;"><path id="pRyJlSsy9" d="M2457 2183 c-4 -3 -7 -18 -7 -33 0 -15 -8 -34 -17 -42 -33 -27 -115 -68 -139 -68 -29 0 -34 -9 -41 -73 l-5 -53 43 -13 c32 -10 44 -10 47 -2 3 9 8 8 20 -1 12 -11 16 -11 20 0 3 10 7 10 18 1 10 -8 14 -8 14 0 0 6 5 11 11 11 14 0 33 20 42 43 5 13 11 16 24 9 10 -5 24 -7 31 -5 15 6 16 49 1 59 -7 4 -2 11 13 18 18 9 24 21 26 59 2 37 0 47 -12 47 -10 0 -16 9 -16 25 0 22 -4 25 -33 25 -19 0 -37 -3 -40 -7z"></path><path id="p2WgHUweF" d="M2320 1793 c0 -7 -9 -13 -20 -13 -14 0 -20 -7 -20 -22 0 -17 3 -19 9 -9 5 8 11 9 15 3 4 -6 19 -9 34 -8 15 2 33 4 41 5 11 1 11 5 -2 19 -10 10 -17 24 -17 30 0 6 -9 10 -20 9 -11 -1 -20 -7 -20 -14z"></path><path id="pP0zNwSr4" d="M2350 1559 c30 -28 47 -49 38 -46 -10 3 -32 1 -49 -5 -31 -11 -31 -12 -25 -59 8 -59 -9 -66 -24 -10 -9 33 -13 38 -34 34 -32 -6 -23 -39 15 -59 16 -8 33 -23 39 -35 10 -18 19 -20 88 -17 71 3 77 5 80 26 4 23 16 29 27 12 3 -5 17 -10 31 -10 23 0 24 3 24 58 0 48 -4 62 -23 80 -13 12 -33 22 -45 22 -11 0 -24 5 -27 10 -3 6 -13 10 -22 10 -9 0 -21 7 -28 16 -7 11 -32 18 -66 21 l-54 5 55 -53z"></path></g></g><g id="l4C9pIjpUf5DyB85VZh61jA" fill="rgb(75,203,251)" style="transform: none;"><g style="transform: none;"><path id="pWafWDdVE" d="M2423 2075 c-9 -25 2 -27 28 -6 l24 20 -23 1 c-12 0 -25 -7 -29 -15z"></path><path id="pmKVCZhVE" d="M2490 2060 c-42 -9 -70 -34 -64 -58 5 -17 10 -19 29 -12 26 10 58 -13 33 -23 -7 -3 -1 -6 15 -6 25 -1 27 2 27 42 0 53 -8 64 -40 57z"></path><path id="pxsRcpIqw" d="M2240 1925 c0 -48 6 -55 25 -28 11 15 13 15 31 -3 19 -19 20 -19 42 3 23 23 28 34 15 32 -5 -1 -11 0 -15 1 -16 5 -28 8 -44 9 -10 1 -14 7 -10 16 4 11 -1 15 -19 15 -23 0 -25 -4 -25 -45z"></path><path id="pJn5djG3b" d="M2360 1951 c0 -5 7 -14 15 -21 16 -14 18 -10 9 14 -6 17 -24 22 -24 7z"></path><path id="pBrvVVpkd" d="M2350 1431 c0 -5 7 -12 16 -15 14 -5 15 -4 4 9 -14 17 -20 19 -20 6z"></path><path id="p14fjxdgjh" d="M2313 1403 c-9 -3 -10 -10 -3 -24 13 -23 39 -26 36 -4 -3 21 -18 33 -33 28z"></path></g></g><g id="l7OZ4zL9lpwFy0vBEvNylsq" fill="rgb(98,167,255)" style="transform: none;"><g style="transform: none;"><path id="p1GhqD0mvg" d="M2390 1971 c0 -11 5 -23 10 -26 6 -3 10 -11 10 -17 0 -7 -6 -6 -15 2 -19 16 -19 0 0 -26 8 -11 15 -14 15 -6 0 6 7 12 15 12 8 0 15 5 15 11 0 5 5 7 10 4 15 -9 12 27 -4 48 -18 24 -56 23 -56 -2z"></path><path id="ptv0xK2tq" d="M2480 1965 c0 -3 2 -5 5 -5 3 0 5 2 5 5 0 3 -2 5 -5 5 -3 0 -5 -2 -5 -5z"></path><path id="pbc0IwUgg" d="M2187 1793 c-10 -10 -8 -81 2 -87 5 -3 12 4 16 17 6 19 8 20 12 4 3 -11 10 -16 20 -13 8 3 21 6 28 6 8 0 17 10 21 22 6 21 7 21 21 2 8 -11 17 -15 21 -9 4 6 13 10 20 11 38 3 43 5 38 13 -3 4 -27 11 -53 14 -26 3 -49 10 -51 16 -4 12 -84 15 -95 4z"></path><path id="pUTjgX6YQ" d="M2298 1643 c-36 -9 -19 -38 33 -58 28 -11 55 -28 60 -38 6 -10 15 -14 21 -11 6 4 17 -1 24 -11 8 -11 21 -16 33 -12 13 3 29 -5 47 -24 15 -16 31 -29 36 -29 4 0 8 34 8 75 0 67 -2 76 -22 88 -32 20 -102 21 -121 3 -13 -14 -18 -13 -40 4 -24 19 -43 23 -79 13z"></path><path id="peLBrtgaT" d="M2387 1463 c-32 -17 -33 -47 -2 -49 57 -2 66 -5 63 -16 -8 -23 14 -33 63 -30 40 3 49 7 49 23 0 22 -38 64 -58 64 -7 0 -17 7 -22 15 -8 12 -10 10 -10 -10 l-1 -25 -16 23 c-18 25 -27 26 -66 5z"></path></g></g><g id="l4n3XmcDTB35KEIFRFooRyJ" fill="rgb(126,140,253)" style="transform: none;"><g style="transform: none;"><path id="p13nNVHWew" d="M2496 2258 c-6 -23 -6 -23 -22 -3 -16 20 -16 20 -9 -3 4 -13 2 -29 -5 -37 -11 -13 -5 -15 41 -15 42 1 50 3 37 11 -10 5 -18 18 -18 27 0 9 -4 23 -9 30 -6 10 -10 8 -15 -10z"></path><path id="pODV1w6w2" d="M2197 1823 c-10 -10 -8 -81 2 -87 5 -3 11 2 13 12 7 24 76 22 95 -4 12 -16 15 -17 23 -4 15 23 12 28 -20 35 -16 3 -32 15 -35 25 -4 11 -12 17 -21 13 -7 -3 -14 0 -14 6 0 12 -32 15 -43 4z"></path></g></g><g id="lnbpYQLRGepa9lQr5Al512" fill="rgb(61,177,254)" style="transform: none;"><g style="transform: none;"><path id="p16qTRCvsQ" d="M2326 2188 c-4 -23 -12 -46 -19 -50 -6 -3 -11 -30 -12 -59 0 -47 2 -53 25 -61 26 -8 29 -7 150 61 8 5 32 16 53 25 35 15 37 18 37 63 0 47 -1 48 -33 51 -17 1 -47 0 -65 -3 -31 -6 -32 -8 -27 -39 5 -25 3 -35 -8 -39 -19 -7 -30 6 -48 56 -18 52 -44 50 -53 -5z m173 -60 c-1 -31 -1 -31 -8 -8 -5 14 -6 28 -4 33 9 15 13 6 12 -25z"></path><path id="pj0syXyh8" d="M2523 2076 c-30 -19 -32 -25 -28 -63 2 -29 0 -43 -8 -43 -8 0 -8 -3 1 -9 7 -4 24 -6 37 -3 27 5 39 41 33 104 l-3 35 -32 -21z"></path><path id="p194C6ayJ7" d="M2415 2022 c-32 -18 -35 -36 -13 -79 15 -30 31 -30 22 -1 -6 21 -5 22 11 8 17 -14 18 -13 11 13 -5 21 -3 27 10 27 11 0 14 5 10 16 -3 9 -6 20 -6 25 0 13 -10 11 -45 -9z"></path><path id="p13MzVq2PQ" d="M2361 1970 c0 -14 11 -38 24 -55 18 -22 25 -25 25 -13 0 9 -5 20 -10 23 -6 4 -17 21 -24 38 -14 30 -14 31 -15 7z"></path><path id="ph1ctS1i0" d="M2200 1810 c0 -40 13 -53 24 -25 4 11 13 14 31 9 20 -5 24 -3 19 9 -3 9 -12 13 -20 10 -9 -3 -14 2 -14 16 0 14 -6 21 -20 21 -17 0 -20 -7 -20 -40z"></path><path id="p1FJ9FjyvA" d="M2305 1645 c-44 -13 -49 -22 -22 -39 13 -8 19 -8 25 1 4 6 22 13 41 15 32 3 32 4 15 19 -16 13 -25 14 -59 4z"></path><path id="prvY1zyOh" d="M2450 1625 c0 -13 32 -66 36 -62 6 6 -23 67 -31 67 -3 0 -5 -2 -5 -5z"></path><path id="poMy9oOdZ" d="M2480 1623 c1 -13 39 -79 40 -69 0 18 -24 76 -32 76 -4 0 -8 -3 -8 -7z"></path><path id="prvkxSOw4" d="M2551 1532 c0 -7 -6 -10 -11 -7 -6 3 -17 0 -25 -8 -12 -12 -12 -17 -1 -26 18 -15 50 9 43 35 -2 10 -5 13 -6 6z"></path><path id="pX0vZGvoc" d="M2363 1453 c-18 -7 -16 -30 2 -37 15 -5 39 26 28 38 -7 7 -12 7 -30 -1z"></path><path id="pv0dWwQRo" d="M2507 1453 c-4 -3 -7 -15 -7 -25 0 -10 -4 -18 -10 -18 -5 0 -10 5 -10 10 0 6 -5 10 -12 10 -6 0 -9 -3 -5 -6 7 -7 -20 -36 -48 -52 -18 -10 -15 -11 18 -12 24 0 44 7 57 20 12 12 25 18 29 15 5 -2 8 9 6 25 -2 33 -8 44 -18 33z"></path></g></g><g id="l7VQctpyLOc3NsYdxmgwJez" fill="rgb(60,148,255)" style="transform: none;"><g style="transform: none;"><path id="pH0Yw4Kkd" d="M2466 2223 c-4 -8 -13 -13 -21 -9 -21 8 -19 -19 2 -44 23 -26 33 -25 34 3 0 12 3 16 6 10 6 -15 33 -17 33 -3 0 6 9 10 20 10 11 0 20 7 20 16 0 8 -5 12 -10 9 -6 -4 -16 -2 -23 3 -23 18 -55 20 -61 5z"></path><path id="pkPvITT1h" d="M2543 2163 c4 -3 10 -3 14 0 3 4 0 7 -7 7 -7 0 -10 -3 -7 -7z"></path><path id="piNTEwm5s" d="M2380 2115 c0 -3 2 -5 5 -5 3 0 5 2 5 5 0 3 -2 5 -5 5 -3 0 -5 -2 -5 -5z"></path><path id="pAJx6HHDX" d="M2420 2100 c0 -5 -7 -10 -15 -10 -8 0 -15 -7 -15 -15 0 -9 -6 -12 -15 -9 -8 4 -15 2 -15 -4 0 -6 -8 -9 -17 -7 -10 1 -17 10 -17 19 1 10 -6 16 -17 16 -22 0 -39 -36 -39 -80 0 -35 16 -48 23 -19 3 12 10 18 17 14 10 -6 122 45 144 65 5 5 2 15 -7 24 -18 18 -27 20 -27 6z"></path><path id="pItG1ja5R" d="M2430 1595 c0 -13 25 -55 32 -55 6 0 7 6 4 13 -3 6 -9 20 -12 30 -6 15 -24 25 -24 12z"></path><path id="pTFNzx4Nz" d="M2550 1530 c0 -5 -7 -6 -17 -3 -11 4 -14 3 -9 -5 10 -17 36 -15 36 3 0 8 -2 15 -5 15 -3 0 -5 -4 -5 -10z"></path></g></g><g id="l6LF967nNJ88yveAexMMRJy" fill="rgb(18,122,254)" style="transform: none;"><g style="transform: none;"><path id="ple1yAMBp" d="M2470 2230 c0 -5 5 -12 10 -15 6 -3 10 -15 10 -26 0 -11 7 -19 16 -19 12 0 15 6 10 23 -3 12 -6 25 -6 28 0 10 -40 18 -40 9z"></path><path id="pYV7JgZ4V" d="M2324 2196 c-11 -28 1 -81 18 -84 12 -2 15 2 11 20 -5 23 -5 23 16 -2 25 -30 28 -10 6 34 -8 15 -12 32 -9 37 3 5 -4 9 -16 9 -11 0 -23 -6 -26 -14z"></path><path id="p11EpeUP93" d="M2440 2195 c0 -17 34 -68 38 -57 7 22 -8 62 -23 62 -8 0 -15 -2 -15 -5z"></path><path id="pqB9cKMHS" d="M2540 2150 c0 -23 -10 -26 -28 -8 -9 9 -12 5 -12 -20 l0 -33 30 16 c21 11 30 23 30 40 0 14 -4 25 -10 25 -5 0 -10 -9 -10 -20z"></path></g></g><g id="l2UzNTaYnimwnrwIY4SwqCO" fill="rgb(0,92,175)" style="transform: none;"><g style="transform: none;"><path id="p1EdMa2sHC" d="M200 2303 c0 -21 38 -148 84 -283 46 -135 129 -380 184 -545 56 -165 156 -460 222 -655 67 -195 137 -403 156 -462 l36 -108 38 0 38 0 49 148 c28 81 104 305 169 499 l119 352 76 -232 c42 -128 114 -346 159 -484 l83 -253 36 0 c20 0 42 4 50 9 7 5 49 114 93 242 44 129 138 405 210 614 71 209 145 425 163 480 18 55 76 225 129 379 53 153 96 291 96 307 l0 29 -193 0 -193 0 -43 -152 c-23 -84 -47 -166 -52 -183 -5 -16 -33 -118 -63 -225 -30 -107 -77 -276 -105 -375 -28 -99 -54 -195 -57 -213 -4 -18 -10 -30 -15 -25 -4 4 -23 55 -42 113 -20 58 -63 184 -97 280 -34 96 -68 195 -76 220 -8 25 -19 54 -23 65 -5 11 -15 40 -23 65 l-15 45 -98 0 -97 0 -38 -110 c-21 -60 -82 -239 -136 -397 -57 -164 -102 -281 -106 -274 -4 7 -25 75 -47 152 -21 76 -55 193 -74 259 -20 66 -42 145 -50 175 -9 30 -26 93 -40 140 -59 204 -118 406 -123 423 -5 15 -23 17 -195 17 l-189 0 0 -37z"></path></g></g><g id="l1HtonNvedoJQRB4LADfCf0" fill="rgb(0,72,137)" style="transform: none;"><g style="transform: none;"><path id="pDFpCGOCk" d="M1677 330 c-20 -24 -33 -25 -41 -5 -9 25 -26 17 -26 -12 0 -58 10 -73 46 -73 39 0 54 21 54 74 0 41 -8 45 -33 16z"></path></g></g><g id="l29GrVrmQ67KSH8MIPgN3es" fill="rgb(6,8,12)" style="transform: none;"><g style="transform: none;"><path id="p22ajKDmk" d="M170 2352 c0 -12 11 -46 160 -482 78 -228 159 -467 180 -530 198 -589 401 -1185 405 -1189 3 -2 7 -2 10 0 4 5 321 933 351 1032 9 27 17 47 20 45 2 -3 30 -85 62 -184 202 -619 297 -903 303 -896 3 4 16 34 27 67 11 33 79 233 152 445 73 212 145 423 160 470 16 47 81 238 145 425 64 187 133 388 153 448 20 59 41 107 48 107 6 0 9 10 7 23 -3 18 30 132 62 210 7 16 -7 17 -202 17 l-208 0 -23 -82 c-12 -46 -34 -121 -47 -168 -44 -148 -96 -332 -119 -420 -62 -233 -142 -510 -146 -510 -6 0 -270 763 -270 779 0 8 -31 11 -102 9 l-101 -3 -85 -245 c-46 -135 -107 -312 -135 -393 -28 -81 -54 -144 -58 -140 -4 4 -16 42 -27 83 -11 41 -40 145 -65 230 -25 85 -89 306 -142 490 -53 184 -98 343 -101 353 -5 15 -24 17 -210 17 -112 0 -204 -3 -204 -8z m384 -59 c7 -23 90 -311 123 -423 13 -47 35 -123 48 -170 13 -47 35 -123 49 -170 14 -47 51 -176 83 -287 31 -112 60 -203 63 -203 3 0 56 150 118 333 63 182 131 382 152 442 l38 110 67 0 68 0 15 -45 c8 -25 18 -54 23 -65 10 -25 76 -215 94 -270 43 -129 164 -476 172 -490 11 -18 11 -16 103 315 100 362 160 575 169 605 5 17 29 99 52 183 l43 152 162 0 163 0 -95 -277 c-53 -153 -111 -323 -129 -378 -18 -55 -93 -273 -165 -485 -73 -212 -170 -497 -217 -635 -46 -137 -87 -254 -90 -259 -4 -5 -28 58 -55 140 -206 630 -311 945 -314 941 -4 -4 -324 -943 -350 -1030 -8 -26 -19 -47 -24 -47 -4 0 -24 48 -44 107 -19 60 -89 268 -156 463 -66 195 -166 490 -222 655 -55 165 -138 410 -184 545 -46 135 -84 248 -84 253 0 4 72 7 159 7 143 0 160 -2 165 -17z"></path></g></g></svg>
